<?xml version="1.0" encoding="UTF-8"?>
<!DOCTYPE svg PUBLIC "-//W3C//DTD SVG 1.1//EN" "http://www.w3.org/Graphics/SVG/1.1/DTD/svg11.dtd">
<!-- Creator: CorelDRAW 2017 -->
<svg xmlns="http://www.w3.org/2000/svg" xml:space="preserve" width="73.0245mm" height="14.688mm" version="1.1" style="shape-rendering:geometricPrecision; text-rendering:geometricPrecision; image-rendering:optimizeQuality; fill-rule:evenodd; clip-rule:evenodd"
viewBox="0 0 75963 15279"
 xmlns:xlink="http://www.w3.org/1999/xlink">
 <defs>
  <style type="text/css">
   <![CDATA[
    .fil0 {fill:#FEFEFE;fill-rule:nonzero}
   ]]>
  </style>
 </defs>
 <g id="Capa_x0020_1">
  <metadata id="CorelCorpID_0Corel-Layer"/>
  <path class="fil0" d="M30835 11301c218,126 386,306 505,538 119,233 178,503 178,810l0 2563 -1501 0 0 -2132c0,-198 -51,-357 -152,-476 -102,-119 -236,-178 -405,-178 -193,5 -346,79 -461,223 -114,144 -171,332 -171,564l0 1998 -1501 0 0 -2132c0,-198 -51,-357 -152,-476 -101,-119 -236,-178 -405,-178 -193,5 -348,79 -464,223 -116,144 -174,332 -174,564l0 1998 -1501 0 0 -4041 1501 0 0 616c138,-218 314,-385 527,-501 213,-116 455,-175 728,-175 312,0 584,77 817,231 233,153 404,369 512,646 129,-282 311,-499 546,-650 235,-151 509,-227 821,-227 283,0 532,63 750,190z"/>
  <path class="fil0" d="M34401 14187c124,-74 213,-176 267,-304l0 -364 -683 0c-302,0 -453,126 -453,379 0,129 40,228 119,297 79,69 191,104 334,104 153,0 292,-37 416,-112zm1259 -2685c319,260 479,623 479,1088l0 2622 -1471 0 0 -446c-124,163 -286,290 -487,379 -201,89 -432,134 -694,134 -426,0 -761,-116 -1003,-346 -243,-231 -364,-539 -364,-925 0,-391 132,-692 397,-902 265,-211 652,-319 1163,-323l988 0 0 -15c0,-168 -59,-300 -178,-393 -119,-94 -292,-141 -520,-141 -163,0 -353,25 -568,74 -215,50 -431,121 -650,215l-372 -995c683,-277 1332,-416 1946,-416 570,0 1014,130 1334,390z"/>
  <path class="fil0" d="M40593 11301c221,126 391,306 513,538 121,233 182,503 182,810l0 2563 -1501 0 0 -2132c0,-198 -53,-357 -160,-476 -107,-119 -247,-178 -419,-178 -203,5 -364,79 -483,223 -119,144 -178,332 -178,564l0 1998 -1501 0 0 -4041 1501 0 0 624c143,-223 323,-393 539,-509 215,-116 464,-175 746,-175 287,0 541,63 761,190z"/>
  <path class="fil0" d="M43597 12556c-134,166 -201,382 -201,650 0,272 67,490 201,654 134,163 312,245 535,245 218,0 394,-82 528,-245 134,-164 200,-381 200,-654 0,-268 -67,-484 -200,-650 -134,-166 -310,-249 -528,-249 -223,0 -401,83 -535,249zm1716 -1181c337,171 598,412 784,724 185,312 278,676 278,1092 0,411 -93,774 -278,1089 -186,314 -447,557 -784,728 -337,171 -730,256 -1181,256 -451,0 -846,-85 -1185,-256 -339,-171 -602,-414 -788,-728 -186,-314 -278,-677 -278,-1089 0,-416 93,-780 278,-1092 186,-312 448,-553 788,-724 339,-171 734,-256 1185,-256 451,0 844,85 1181,256z"/>
  <path class="fil0" d="M49689 14614c223,-131 397,-313 524,-546 126,-233 189,-498 189,-795 0,-297 -63,-563 -189,-799 -126,-236 -301,-420 -524,-554 -223,-134 -476,-200 -757,-200 -283,0 -535,67 -758,200 -223,134 -399,318 -527,554 -129,235 -193,501 -193,799 0,297 63,562 189,795 127,233 302,415 527,546 226,131 479,197 762,197 282,0 535,-66 757,-197zm1211 -4914l0 5512 -498 0 0 -891c-149,292 -356,519 -624,680 -267,161 -579,242 -936,242 -367,0 -693,-84 -980,-253 -288,-168 -510,-403 -669,-705 -158,-302 -237,-644 -237,-1025 0,-381 80,-720 241,-1018 161,-297 384,-530 669,-698 285,-168 608,-253 969,-253 357,0 670,82 939,245 270,164 479,392 628,684l0 -2518 498 0z"/>
  <path class="fil0" d="M55394 13043c-25,-406 -160,-729 -405,-969 -245,-240 -566,-360 -962,-360 -391,0 -718,121 -980,364 -263,243 -414,564 -454,965l2801 0zm7 -1163c317,384 463,900 438,1549l-3246 0c35,416 188,752 461,1007 272,255 609,382 1010,382 248,0 478,-44 691,-134 213,-89 396,-215 550,-379l282 283c-188,203 -415,360 -680,472 -265,112 -556,167 -873,167 -376,0 -711,-82 -1003,-249 -292,-166 -521,-397 -688,-694 -166,-297 -248,-637 -248,-1018 0,-376 83,-714 248,-1014 167,-300 396,-532 688,-699 292,-166 621,-248 988,-248 604,0 1065,192 1382,575z"/>
  <path class="fil0" d="M58120 12556c-134,166 -201,382 -201,650 0,272 67,490 201,654 134,163 312,245 535,245 218,0 393,-82 527,-245 134,-164 200,-381 200,-654 0,-268 -67,-484 -200,-650 -134,-166 -310,-249 -527,-249 -223,0 -402,83 -535,249zm1716 -1181c337,171 598,412 784,724 185,312 278,676 278,1092 0,411 -93,774 -278,1089 -186,314 -447,557 -784,728 -337,171 -730,256 -1181,256 -451,0 -846,-85 -1185,-256 -339,-171 -602,-414 -788,-728 -186,-314 -279,-677 -279,-1089 0,-416 93,-780 279,-1092 186,-312 448,-553 788,-724 339,-171 734,-256 1185,-256 451,0 844,85 1181,256z"/>
  <path class="fil0" d="M64404 13826c134,-166 201,-382 201,-650 0,-268 -67,-484 -201,-650 -134,-166 -312,-249 -535,-249 -218,0 -394,83 -528,249 -134,166 -200,382 -200,650 0,268 67,484 200,650 134,166 309,249 528,249 222,0 401,-83 535,-249zm824 -2448c283,174 501,419 657,735 156,317 234,683 234,1099 0,411 -76,772 -226,1081 -152,310 -366,549 -643,717 -277,168 -599,252 -966,252 -238,0 -453,-44 -646,-134 -193,-89 -359,-218 -498,-386l0 468 -1501 0 0 -5512 1501 0 0 1939c134,-169 294,-297 483,-386 188,-89 396,-134 624,-134 371,0 698,87 981,260z"/>
  <path class="fil0" d="M68865 11293c215,-121 459,-182 732,-182l0 1352c-60,-10 -146,-15 -260,-15 -312,0 -559,74 -739,223 -181,148 -271,351 -271,609l0 1931 -1501 0 0 -4041 1501 0 0 638c143,-222 323,-394 538,-516z"/>
  <path class="fil0" d="M72122 14187c124,-74 213,-176 268,-304l0 -364 -684 0c-302,0 -453,126 -453,379 0,129 39,228 119,297 79,69 190,104 334,104 154,0 293,-37 416,-112zm1259 -2685c319,260 479,623 479,1088l0 2622 -1471 0 0 -446c-124,163 -286,290 -487,379 -201,89 -432,134 -694,134 -426,0 -761,-116 -1003,-346 -243,-231 -364,-539 -364,-925 0,-391 132,-692 397,-902 265,-211 652,-319 1163,-323l988 0 0 -15c0,-168 -60,-300 -178,-393 -119,-94 -292,-141 -520,-141 -163,0 -353,25 -568,74 -215,50 -432,121 -650,215l-371 -995c683,-277 1332,-416 1946,-416 570,0 1014,130 1334,390z"/>
  <path class="fil0" d="M75766 14068c131,129 197,295 197,498 0,208 -66,378 -197,509 -131,131 -301,197 -509,197 -203,0 -371,-65 -502,-197 -131,-131 -197,-301 -197,-509 0,-203 66,-369 197,-498 131,-129 299,-193 502,-193 208,0 378,64 509,193z"/>
  <path class="fil0" d="M21033 6562c-831,-2649 -3306,-4571 -6229,-4571 -1074,0 -2087,261 -2981,721 -1185,-1643 -3115,-2713 -5295,-2713 -2924,0 -5398,1922 -6229,4571 -194,618 -299,1274 -299,1956l0 8684 4778 0 0 -405 0 -8528c0,-966 783,-1749 1749,-1749 966,0 1749,783 1749,1749l0 8528 0 405 4779 0 0 0 0 -405 0 -6537c0,-966 783,-1749 1749,-1749 966,0 1749,783 1749,1749l0 6537 0 405 4778 0 0 -6693c0,-681 -105,-1339 -298,-1956z"/>
 </g>
</svg>
