<?xml version="1.0" encoding="utf-8"?>
<!-- Generator: Adobe Illustrator 21.0.0, SVG Export Plug-In . SVG Version: 6.00 Build 0)  -->
<svg version="1.1" id="Layer_1" xmlns="http://www.w3.org/2000/svg" xmlns:xlink="http://www.w3.org/1999/xlink" x="0px" y="0px"
	 viewBox="0 0 22 22" style="enable-background:new 0 0 22 22;" xml:space="preserve">
<style type="text/css">
	.st0{fill:#211915;}
</style>
<g>
	<path class="st0" d="M18.1,5.6h-2.9l-1.7-1.7c0,0,0,0,0,0l0,0l0,0c-0.3-0.3-0.6-0.4-1-0.4H8.8c-0.4,0-0.8,0.2-1.1,0.5v0L6.1,5.6
		H3.2C2.4,5.6,1.7,6.2,1.7,7v8.6c0,0.8,0.6,1.4,1.4,1.4h14.9c0.8,0,1.4-0.6,1.4-1.4V7C19.5,6.2,18.9,5.6,18.1,5.6z M10.6,14.9
		c-2.2,0-4-1.8-4-4c0-2.2,1.8-4,4-4c2.2,0,3.9,1.8,3.9,4C14.6,13.1,12.8,14.9,10.6,14.9z M17.8,7.8c-0.3,0-0.6-0.3-0.6-0.6
		c0-0.3,0.3-0.6,0.6-0.6c0.3,0,0.6,0.3,0.6,0.6C18.4,7.6,18.1,7.8,17.8,7.8z"/>
	<path class="st0" d="M10.6,7.9c-1.7,0-3,1.3-3,3c0,1.6,1.3,3,3,3c1.6,0,3-1.3,3-3C13.6,9.3,12.3,7.9,10.6,7.9z"/>
</g>
</svg>
