<?xml version="1.0" encoding="utf-8"?>
<!-- Generator: Adobe Illustrator 25.2.3, SVG Export Plug-In . SVG Version: 6.00 Build 0)  -->
<svg version="1.1" id="Layer_1" xmlns="http://www.w3.org/2000/svg" xmlns:xlink="http://www.w3.org/1999/xlink" x="0px" y="0px"
	 viewBox="0 0 207 41.6" style="enable-background:new 0 0 207 41.6;" xml:space="preserve">
<style type="text/css">
	.st0{fill:#231F20;}
</style>
<g id="Capa_x0020_1">
	<path class="st0" d="M84,30.8c0.6,0.3,1.1,0.8,1.4,1.5c0.3,0.6,0.5,1.4,0.5,2.2v7h-4.1v-5.8c0-0.5-0.1-1-0.4-1.3
		c-0.3-0.3-0.6-0.5-1.1-0.5c-0.5,0-0.9,0.2-1.3,0.6c-0.3,0.4-0.5,0.9-0.5,1.5v5.4h-4.1v-5.8c0-0.5-0.1-1-0.4-1.3
		c-0.3-0.3-0.6-0.5-1.1-0.5c-0.5,0-0.9,0.2-1.3,0.6c-0.3,0.4-0.5,0.9-0.5,1.5v5.4h-4.1v-11h4.1v1.7c0.4-0.6,0.9-1,1.4-1.4
		c0.6-0.3,1.2-0.5,2-0.5c0.9,0,1.6,0.2,2.2,0.6c0.6,0.4,1.1,1,1.4,1.8c0.4-0.8,0.8-1.4,1.5-1.8c0.6-0.4,1.4-0.6,2.2-0.6
		C82.7,30.3,83.4,30.4,84,30.8L84,30.8z"/>
	<path class="st0" d="M93.7,38.7c0.3-0.2,0.6-0.5,0.7-0.8v-1h-1.9c-0.8,0-1.2,0.3-1.2,1c0,0.4,0.1,0.6,0.3,0.8
		c0.2,0.2,0.5,0.3,0.9,0.3C93,39,93.4,38.9,93.7,38.7z M97.2,31.3c0.9,0.7,1.3,1.7,1.3,3v7.1h-4v-1.2c-0.3,0.4-0.8,0.8-1.3,1
		c-0.5,0.2-1.2,0.4-1.9,0.4c-1.2,0-2.1-0.3-2.7-0.9c-0.7-0.6-1-1.5-1-2.5c0-1.1,0.4-1.9,1.1-2.5c0.7-0.6,1.8-0.9,3.2-0.9h2.7v0
		c0-0.5-0.2-0.8-0.5-1.1c-0.3-0.3-0.8-0.4-1.4-0.4c-0.4,0-1,0.1-1.5,0.2c-0.6,0.1-1.2,0.3-1.8,0.6l-1-2.7c1.9-0.8,3.6-1.1,5.3-1.1
		C95.1,30.3,96.3,30.6,97.2,31.3z"/>
	<path class="st0" d="M110.6,30.8c0.6,0.3,1.1,0.8,1.4,1.5c0.3,0.6,0.5,1.4,0.5,2.2v7h-4.1v-5.8c0-0.5-0.1-1-0.4-1.3
		c-0.3-0.3-0.7-0.5-1.1-0.5c-0.6,0-1,0.2-1.3,0.6c-0.3,0.4-0.5,0.9-0.5,1.5v5.4H101v-11h4.1v1.7c0.4-0.6,0.9-1.1,1.5-1.4
		c0.6-0.3,1.3-0.5,2-0.5C109.3,30.3,110,30.4,110.6,30.8L110.6,30.8z"/>
	<path class="st0" d="M118.8,34.2c-0.4,0.5-0.5,1-0.5,1.8c0,0.7,0.2,1.3,0.5,1.8c0.4,0.4,0.9,0.7,1.5,0.7c0.6,0,1.1-0.2,1.4-0.7
		c0.4-0.4,0.5-1,0.5-1.8c0-0.7-0.2-1.3-0.5-1.8c-0.4-0.5-0.8-0.7-1.4-0.7C119.7,33.5,119.2,33.8,118.8,34.2z M123.5,31
		c0.9,0.5,1.6,1.1,2.1,2c0.5,0.9,0.8,1.8,0.8,3c0,1.1-0.3,2.1-0.8,3c-0.5,0.9-1.2,1.5-2.1,2c-0.9,0.5-2,0.7-3.2,0.7
		c-1.2,0-2.3-0.2-3.2-0.7c-0.9-0.5-1.6-1.1-2.1-2c-0.5-0.9-0.8-1.8-0.8-3c0-1.1,0.3-2.1,0.8-3c0.5-0.9,1.2-1.5,2.1-2
		c0.9-0.5,2-0.7,3.2-0.7C121.5,30.3,122.6,30.5,123.5,31z"/>
	<path class="st0" d="M135.4,39.8c0.6-0.4,1.1-0.9,1.4-1.5c0.3-0.6,0.5-1.4,0.5-2.2s-0.2-1.5-0.5-2.2s-0.8-1.1-1.4-1.5
		c-0.6-0.4-1.3-0.5-2.1-0.5c-0.8,0-1.5,0.2-2.1,0.5c-0.6,0.4-1.1,0.9-1.4,1.5c-0.4,0.6-0.5,1.4-0.5,2.2c0,0.8,0.2,1.5,0.5,2.2
		c0.3,0.6,0.8,1.1,1.4,1.5c0.6,0.4,1.3,0.5,2.1,0.5C134.1,40.4,134.8,40.2,135.4,39.8z M138.7,26.4v15h-1.4V39
		c-0.4,0.8-1,1.4-1.7,1.9c-0.7,0.4-1.6,0.7-2.6,0.7c-1,0-1.9-0.2-2.7-0.7c-0.8-0.5-1.4-1.1-1.8-1.9c-0.4-0.8-0.6-1.8-0.6-2.8
		c0-1,0.2-2,0.7-2.8c0.4-0.8,1-1.4,1.8-1.9c0.8-0.5,1.7-0.7,2.6-0.7c1,0,1.8,0.2,2.6,0.7c0.7,0.4,1.3,1.1,1.7,1.9v-6.9L138.7,26.4
		L138.7,26.4z"/>
	<path class="st0" d="M150.9,35.5c-0.1-1.1-0.4-2-1.1-2.6c-0.7-0.7-1.5-1-2.6-1c-1.1,0-2,0.3-2.7,1c-0.7,0.7-1.1,1.5-1.2,2.6H150.9z
		 M151,32.4c0.9,1,1.3,2.5,1.2,4.2h-8.8c0.1,1.1,0.5,2,1.3,2.7c0.7,0.7,1.7,1,2.8,1c0.7,0,1.3-0.1,1.9-0.4c0.6-0.2,1.1-0.6,1.5-1
		l0.8,0.8c-0.5,0.6-1.1,1-1.9,1.3s-1.5,0.5-2.4,0.5c-1,0-1.9-0.2-2.7-0.7c-0.8-0.5-1.4-1.1-1.9-1.9c-0.5-0.8-0.7-1.7-0.7-2.8
		c0-1,0.2-1.9,0.7-2.8c0.5-0.8,1.1-1.4,1.9-1.9c0.8-0.5,1.7-0.7,2.7-0.7C148.8,30.8,150.1,31.3,151,32.4z"/>
	<path class="st0" d="M158.4,34.2c-0.4,0.5-0.5,1-0.5,1.8c0,0.7,0.2,1.3,0.5,1.8c0.4,0.4,0.9,0.7,1.5,0.7c0.6,0,1.1-0.2,1.4-0.7
		c0.4-0.4,0.5-1,0.5-1.8c0-0.7-0.2-1.3-0.5-1.8c-0.4-0.5-0.8-0.7-1.4-0.7C159.2,33.5,158.7,33.8,158.4,34.2z M163.1,31
		c0.9,0.5,1.6,1.1,2.1,2c0.5,0.9,0.8,1.8,0.8,3c0,1.1-0.3,2.1-0.8,3c-0.5,0.9-1.2,1.5-2.1,2s-2,0.7-3.2,0.7s-2.3-0.2-3.2-0.7
		s-1.6-1.1-2.1-2c-0.5-0.9-0.8-1.8-0.8-3c0-1.1,0.3-2.1,0.8-3c0.5-0.9,1.2-1.5,2.1-2c0.9-0.5,2-0.7,3.2-0.7S162.1,30.5,163.1,31z"/>
	<path class="st0" d="M175.5,37.7c0.4-0.5,0.5-1,0.5-1.8s-0.2-1.3-0.5-1.8c-0.4-0.5-0.9-0.7-1.5-0.7c-0.6,0-1.1,0.2-1.4,0.7
		c-0.4,0.5-0.5,1-0.5,1.8s0.2,1.3,0.5,1.8c0.4,0.5,0.8,0.7,1.4,0.7C174.6,38.4,175.1,38.1,175.5,37.7z M177.7,31
		c0.8,0.5,1.4,1.1,1.8,2c0.4,0.9,0.6,1.9,0.6,3c0,1.1-0.2,2.1-0.6,2.9c-0.4,0.8-1,1.5-1.8,2s-1.6,0.7-2.6,0.7
		c-0.6,0-1.2-0.1-1.8-0.4c-0.5-0.2-1-0.6-1.4-1.1v1.3H168v-15h4.1v5.3c0.4-0.5,0.8-0.8,1.3-1.1c0.5-0.2,1.1-0.4,1.7-0.4
		C176.1,30.3,177,30.5,177.7,31L177.7,31z"/>
	<path class="st0" d="M187.7,30.8c0.6-0.3,1.3-0.5,2-0.5V34c-0.2,0-0.4,0-0.7,0c-0.9,0-1.5,0.2-2,0.6c-0.5,0.4-0.7,1-0.7,1.7v5.3
		h-4.1v-11h4.1v1.7C186.6,31.6,187.1,31.1,187.7,30.8L187.7,30.8z"/>
	<path class="st0" d="M196.5,38.7c0.3-0.2,0.6-0.5,0.7-0.8v-1h-1.9c-0.8,0-1.2,0.3-1.2,1c0,0.4,0.1,0.6,0.3,0.8
		c0.2,0.2,0.5,0.3,0.9,0.3C195.8,39,196.2,38.9,196.5,38.7z M200,31.3c0.9,0.7,1.3,1.7,1.3,3v7.1h-4v-1.2c-0.3,0.4-0.8,0.8-1.3,1
		c-0.5,0.2-1.2,0.4-1.9,0.4c-1.2,0-2.1-0.3-2.7-0.9c-0.7-0.6-1-1.5-1-2.5c0-1.1,0.4-1.9,1.1-2.5c0.7-0.6,1.8-0.9,3.2-0.9h2.7v0
		c0-0.5-0.2-0.8-0.5-1.1c-0.3-0.3-0.8-0.4-1.4-0.4c-0.4,0-1,0.1-1.5,0.2c-0.6,0.1-1.2,0.3-1.8,0.6l-1-2.7c1.9-0.8,3.6-1.1,5.3-1.1
		C197.9,30.3,199.1,30.6,200,31.3L200,31.3z"/>
	<path class="st0" d="M206.5,38.3c0.4,0.4,0.5,0.8,0.5,1.4c0,0.6-0.2,1-0.5,1.4c-0.4,0.4-0.8,0.5-1.4,0.5c-0.6,0-1-0.2-1.4-0.5
		c-0.4-0.4-0.5-0.8-0.5-1.4c0-0.6,0.2-1,0.5-1.4c0.4-0.4,0.8-0.5,1.4-0.5C205.6,37.8,206.1,38,206.5,38.3z"/>
	<path class="st0" d="M57.3,17.9c-2.3-7.2-9-12.5-17-12.5c-2.9,0-5.7,0.7-8.1,2C29,2.9,23.7,0,17.8,0c-8,0-14.7,5.2-17,12.5
		C0.3,14.1,0,15.9,0,17.8v23.7h13v-1.1V17.1c0-2.6,2.1-4.8,4.8-4.8s4.8,2.1,4.8,4.8v23.2v1.1h13l0,0v-1.1V22.5
		c0-2.6,2.1-4.8,4.8-4.8c2.6,0,4.8,2.1,4.8,4.8v17.8v1.1h13V23.2C58.1,21.4,57.8,19.6,57.3,17.9L57.3,17.9z"/>
</g>
</svg>
