<?xml version="1.0" encoding="UTF-8"?>
<!DOCTYPE svg PUBLIC "-//W3C//DTD SVG 1.1//EN" "http://www.w3.org/Graphics/SVG/1.1/DTD/svg11.dtd">
<!-- Creator: CorelDRAW 2017 -->
<svg xmlns="http://www.w3.org/2000/svg" xml:space="preserve" width="47.5193mm" height="9.5579mm" version="1.1" style="shape-rendering:geometricPrecision; text-rendering:geometricPrecision; image-rendering:optimizeQuality; fill-rule:evenodd; clip-rule:evenodd"
viewBox="0 0 6373 1282"
 xmlns:xlink="http://www.w3.org/1999/xlink">
 <defs>
  <style type="text/css">
   <![CDATA[
    .fil0 {fill:#373435;fill-rule:nonzero}
   ]]>
  </style>
 </defs>
 <g id="Capa_x0020_1">
  <metadata id="CorelCorpID_0Corel-Layer"/>
  <path class="fil0" d="M2587 948c18,11 32,26 42,45 10,20 15,42 15,68l0 215 -126 0 0 -179c0,-17 -4,-30 -13,-40 -9,-10 -20,-15 -34,-15 -16,0 -29,7 -39,19 -10,12 -14,28 -14,47l0 168 -126 0 0 -179c0,-17 -4,-30 -13,-40 -9,-10 -20,-15 -34,-15 -16,0 -29,7 -39,19 -10,12 -15,28 -15,47l0 168 -126 0 0 -339 126 0 0 52c12,-18 26,-32 44,-42 18,-10 38,-15 61,-15 26,0 49,6 69,19 20,13 34,31 43,54 11,-24 26,-42 46,-55 20,-13 43,-19 69,-19 24,0 45,5 63,16z"/>
  <path class="fil0" d="M2886 1190c10,-6 18,-15 22,-26l0 -31 -57 0c-25,0 -38,11 -38,32 0,11 3,19 10,25 7,6 16,9 28,9 13,0 25,-3 35,-9zm106 -225c27,22 40,52 40,91l0 220 -123 0 0 -37c-10,14 -24,24 -41,32 -17,7 -36,11 -58,11 -36,0 -64,-10 -84,-29 -20,-19 -31,-45 -31,-78 0,-33 11,-58 33,-76 22,-18 55,-27 98,-27l83 0 0 -1c0,-14 -5,-25 -15,-33 -10,-8 -25,-12 -44,-12 -14,0 -30,2 -48,6 -18,4 -36,10 -54,18l-31 -84c57,-23 112,-35 163,-35 48,0 85,11 112,33z"/>
  <path class="fil0" d="M3406 948c19,11 33,26 43,45 10,20 15,42 15,68l0 215 -126 0 0 -179c0,-17 -4,-30 -13,-40 -9,-10 -21,-15 -35,-15 -17,0 -31,7 -41,19 -10,12 -15,28 -15,47l0 168 -126 0 0 -339 126 0 0 52c12,-19 27,-33 45,-43 18,-10 39,-15 63,-15 24,0 45,5 64,16z"/>
  <path class="fil0" d="M3658 1053c-11,14 -17,32 -17,55 0,23 6,41 17,55 11,14 26,21 45,21 18,0 33,-7 44,-21 11,-14 17,-32 17,-55 0,-22 -6,-41 -17,-55 -11,-14 -26,-21 -44,-21 -19,0 -34,7 -45,21zm144 -99c28,14 50,35 66,61 16,26 23,57 23,92 0,35 -8,65 -23,91 -16,26 -37,47 -66,61 -28,14 -61,21 -99,21 -38,0 -71,-7 -99,-21 -28,-14 -50,-35 -66,-61 -16,-26 -23,-57 -23,-91 0,-35 8,-65 23,-92 16,-26 38,-46 66,-61 28,-14 62,-21 99,-21 38,0 71,7 99,21z"/>
  <path class="fil0" d="M4169 1226c19,-11 33,-26 44,-46 11,-20 16,-42 16,-67 0,-25 -5,-47 -16,-67 -11,-20 -25,-35 -44,-46 -19,-11 -40,-17 -64,-17 -24,0 -45,6 -64,17 -19,11 -33,27 -44,46 -11,20 -16,42 -16,67 0,25 5,47 16,67 11,20 25,35 44,46 19,11 40,17 64,17 24,0 45,-5 64,-17zm102 -412l0 462 -42 0 0 -75c-12,25 -30,43 -52,57 -22,13 -49,20 -79,20 -31,0 -58,-7 -82,-21 -24,-14 -43,-34 -56,-59 -13,-25 -20,-54 -20,-86 0,-32 7,-60 20,-85 13,-25 32,-44 56,-59 24,-14 51,-21 81,-21 30,0 56,7 79,21 23,14 40,33 53,57l0 -211 42 0z"/>
  <path class="fil0" d="M4647 1094c-2,-34 -13,-61 -34,-81 -21,-20 -47,-30 -81,-30 -33,0 -60,10 -82,31 -22,20 -35,47 -38,81l235 0zm1 -98c27,32 39,76 37,130l-272 0c3,35 16,63 39,84 23,21 51,32 85,32 21,0 40,-4 58,-11 18,-7 33,-18 46,-32l24 24c-16,17 -35,30 -57,40 -22,9 -47,14 -73,14 -32,0 -60,-7 -84,-21 -25,-14 -44,-33 -58,-58 -14,-25 -21,-53 -21,-85 0,-32 7,-60 21,-85 14,-25 33,-45 58,-59 24,-14 52,-21 83,-21 51,0 89,16 116,48z"/>
  <path class="fil0" d="M4876 1053c-11,14 -17,32 -17,55 0,23 6,41 17,55 11,14 26,21 45,21 18,0 33,-7 44,-21 11,-14 17,-32 17,-55 0,-22 -6,-41 -17,-55 -11,-14 -26,-21 -44,-21 -19,0 -34,7 -45,21zm144 -99c28,14 50,35 66,61 16,26 23,57 23,92 0,35 -8,65 -23,91 -16,26 -37,47 -66,61 -28,14 -61,21 -99,21 -38,0 -71,-7 -99,-21 -28,-14 -50,-35 -66,-61 -16,-26 -23,-57 -23,-91 0,-35 8,-65 23,-92 16,-26 38,-46 66,-61 28,-14 62,-21 99,-21 38,0 71,7 99,21z"/>
  <path class="fil0" d="M5403 1160c11,-14 17,-32 17,-55 0,-22 -6,-41 -17,-55 -11,-14 -26,-21 -45,-21 -18,0 -33,7 -44,21 -11,14 -17,32 -17,55 0,22 6,41 17,55 11,14 26,21 44,21 19,0 34,-7 45,-21zm69 -205c24,15 42,35 55,62 13,27 20,57 20,92 0,34 -6,65 -19,91 -13,26 -31,46 -54,60 -23,14 -50,21 -81,21 -20,0 -38,-4 -54,-11 -16,-7 -30,-18 -42,-32l0 39 -126 0 0 -462 126 0 0 163c11,-14 25,-25 41,-32 16,-7 33,-11 52,-11 31,0 59,7 82,22z"/>
  <path class="fil0" d="M5778 947c18,-10 39,-15 61,-15l0 113c-5,-1 -12,-1 -22,-1 -26,0 -47,6 -62,19 -15,12 -23,29 -23,51l0 162 -126 0 0 -339 126 0 0 54c12,-19 27,-33 45,-43z"/>
  <path class="fil0" d="M6051 1190c10,-6 18,-15 22,-26l0 -31 -57 0c-25,0 -38,11 -38,32 0,11 3,19 10,25 7,6 16,9 28,9 13,0 25,-3 35,-9zm106 -225c27,22 40,52 40,91l0 220 -123 0 0 -37c-10,14 -24,24 -41,32 -17,7 -36,11 -58,11 -36,0 -64,-10 -84,-29 -20,-19 -31,-45 -31,-78 0,-33 11,-58 33,-76 22,-18 55,-27 98,-27l83 0 0 -1c0,-14 -5,-25 -15,-33 -10,-8 -25,-12 -44,-12 -14,0 -30,2 -48,6 -18,4 -36,10 -55,18l-31 -84c57,-23 112,-35 163,-35 48,0 85,11 112,33z"/>
  <path class="fil0" d="M6357 1180c11,11 17,25 17,42 0,17 -6,32 -17,43 -11,11 -25,17 -43,17 -17,0 -31,-5 -42,-17 -11,-11 -17,-25 -17,-43 0,-17 6,-31 17,-42 11,-11 25,-16 42,-16 17,0 32,5 43,16z"/>
  <path class="fil0" d="M1765 551c-70,-222 -277,-384 -523,-384 -90,0 -175,22 -250,61 -99,-138 -261,-228 -444,-228 -245,0 -453,161 -523,383 -16,52 -25,107 -25,164l0 729 401 0 0 -34 0 -716c0,-81 66,-147 147,-147 81,0 147,66 147,147l0 716 0 34 401 0 0 0 0 -34 0 -548c0,-81 66,-147 147,-147 81,0 147,66 147,147l0 548 0 34 401 0 0 -562c0,-57 -9,-112 -25,-164z"/>
 </g>
</svg>
