<?xml version="1.0" encoding="utf-8"?>
<!-- Generator: Adobe Illustrator 21.0.0, SVG Export Plug-In . SVG Version: 6.00 Build 0)  -->
<svg version="1.1" id="Layer_1" xmlns="http://www.w3.org/2000/svg" xmlns:xlink="http://www.w3.org/1999/xlink" x="0px" y="0px"
	 viewBox="0 0 300 300" style="enable-background:new 0 0 300 300;" xml:space="preserve">
<style type="text/css">
	.st0{opacity:4.000000e-02;}
	.st1{display:none;fill:#232323;}
	.st2{fill:#232323;}
</style>
<g class="st0">
	<g>
		<path class="st1" d="M124,291c0-0.1,0.1-0.2,0.1-0.3l0,0c1.2-3.3,0.3-6.4-0.3-7.9v0c-0.4-0.2-0.9-0.2-1.4,0c0.6-0.2,1-0.2,1.5,0
			c-0.1-0.3-0.3-0.6-0.3-0.7c0,0,0,0,0,0c0,0,0-0.1,0-0.1c0.3,0.2,0-2.1-0.1-3.3c0-0.1-0.1-0.2-0.1-0.3c-0.5-1.6-1.4-2.6-2.3-3.2
			c-0.1-0.6-0.5-1.7-1.2-3c-0.2-0.4-0.4-0.7-0.7-1.1c-0.4-0.6-0.8-1.1-1.4-1.6s-1.2-1-1.9-1.5c-0.4-0.2-0.8-0.4-1.2-0.6
			c-0.1-0.1-0.3-0.1-0.4-0.2c-0.3-0.1-0.6-0.2-0.9-0.3c-0.2-0.1-0.4-0.1-0.5-0.1c-0.3-0.1-0.5-0.1-0.8-0.2c-0.2,0-0.4-0.1-0.6-0.1
			c-0.3,0-0.5-0.1-0.8-0.1c-0.2,0-0.4,0-0.7,0c-0.3,0-0.6,0-0.8,0c-0.2,0-0.5,0-0.7,0c-0.3,0-0.6,0-0.9,0.1c-0.3,0-0.5,0.1-0.8,0.1
			c-0.3,0-0.6,0.1-0.9,0.2c-0.3,0.1-0.5,0.1-0.8,0.2c-0.2,0-0.3,0.1-0.5,0.1c0,0-0.1,0-0.2,0.1c-0.1,0-0.1,0-0.2,0.1
			c-0.8,0.3-2.3,0.7-4.1,1.3c-4,1.4-7.7,2.6-11.2,3.7c0,0,0,0,0,0c0,0-0.1,0.1-0.3,0.1c-0.6,0.2-1.9,0.6-3.2,1
			c-1.4,0.4-2.7,0.9-4.1,1.3c-0.6,0.2-1.3,0.4-1.9,0.6c-0.1,0-0.1,0-0.2,0c-0.5,0.1-1.4,0.3-3.2,1l0,0c-0.1,0-0.1,0-0.2,0
			c-3.5,1.1-6.5,2.2-9.4,3.1c-0.1,0-0.2,0.1-0.3,0.1c-1.3,0.4-3.2,1.1-5.3,2c-6.3,2.7-14.5,7.4-14.1,14.8c0,0,0,0,0,0
			c0,0.4,0.1,0.9,0.2,1.3c0.3,0.9,0.3,1.7-0.1,2.3c0,0,0,0,0,0c0,0,0,0.1,0,0.1h2.3c0.1-0.1,0.2-0.2,0.3-0.3
			c0.1-0.1,0.2-0.2,0.3-0.3c0.2-0.1,0.4-0.2,0.5-0.3l2.1-0.7c0.2,0.2,0.4,0.5,0.6,0.7c0.2,0.2,0.4,0.5,0.6,0.7h2.4
			c-0.6-0.7-1.2-1.4-1.7-2.1l7.8-2.7l0,0c0,0.3,0,0.7,0.1,1c0.1,1.1,0.2,2.2,0.4,3.3c0,0.1,0,0.3,0.1,0.5h1.9c0-0.3-0.1-0.5-0.1-0.7
			c0-0.3-0.1-0.6-0.1-1c-0.1-0.4-0.1-0.9-0.2-1.4c-0.1-0.8-0.1-1.7-0.1-2.4l2.3-0.8c1.2,1.3,2.6,3.4,3.5,4.8c0.3,0.5,0.7,1,1,1.5
			h7.2l6.1-2.1c0.2,0.2,0.4,0.4,0.6,0.5c0.1,0.1,0.3,0.2,0.4,0.3c0.2,0.1,0.4,0.2,0.5,0.3c0.5,0.2,1.1,0.3,1.6,0.1
			c0.7-0.2,1.1-0.7,1.3-1.4c0.1-0.4,0.2-0.9,0.2-1.4l6.2-2.1c0.3,0.3,0.6,0.6,0.9,0.8c0.4,0.3,0.8,0.4,1.2,0.3c0.1,0,0.2,0,0.3-0.1
			c0.9-0.3,1.3-1.1,1.3-2.3l4.7-1.6c0.7,1.2,1.5,1.8,2.5,1.4c0,0,0,0,0,0c0.8-0.3,1.1-1.2,1.4-2.8c0,0,0,0,0,0l5.2-1.8
			c0.7,1.1,1.4,1.6,2.2,1.3c0,0,0,0,0,0c0.9-0.3,1.1-1.1,1.1-2.4c0,0,0,0,0,0l3.5-1.2c0.3-0.1,0.5-0.2,0.8-0.3
			c0.8-0.3,1.4-0.8,1.9-1.3c0,0,0,0,0,0c0.5,1.4,0.9,3.8,0,6.4c-0.5,1.4-1.4,2.6-2.7,3.8c-1.7,1.5-4,2.8-6.9,3.8
			c-2,0.7-4,1.4-5.9,2.1h5.6c0.3-0.1,0.6-0.2,0.8-0.3C119,297.7,122.6,294.8,124,291z M73.1,299.8L73.1,299.8
			c-0.3-0.4-0.5-0.8-0.8-1.2c-0.3-0.4-0.5-0.8-0.7-1.1c-0.5-0.8-1.1-1.6-1.6-2.4c-0.5-0.8-1.1-1.5-1.6-2.1l5.8-2
			c0,1.3,0.1,2.8,0.2,4.4c0,0.6,0.1,1.2,0.1,1.9c0,0.7,0.1,1.3,0.1,1.9L73.1,299.8z M76.4,297.1c0-0.5-0.1-1.1-0.1-1.7
			c0-0.4,0-0.8-0.1-1.2c-0.1-1.3-0.1-2.7-0.1-3.8l1.6-0.6c0.9,1,1.9,2.4,2.6,3.4c0.9,1.2,1.7,2.3,2.5,3.2l-6.3,2.2
			C76.5,298.1,76.5,297.6,76.4,297.1z M86.8,297.3c-0.1,0-0.3,0-0.5-0.1l0.4-0.1l0.3-0.1C86.9,297.1,86.9,297.3,86.8,297.3z
			 M86.6,295.1l-1.8,0.6c-0.8-0.9-1.6-2-2.3-2.9c-0.2-0.3-0.4-0.6-0.6-0.8c-0.2-0.3-0.4-0.6-0.6-0.8s-0.4-0.5-0.6-0.7
			c-0.4-0.5-0.7-0.9-1-1.3l3.8-1.2l2.5-1c0.1,1.4,0.3,2.9,0.5,4.5c0.1,1,0.3,2.3,0.4,3.5L86.6,295.1z M88.6,292.8
			c-0.1-0.5-0.2-1.1-0.2-1.6c0,0,0-0.1,0-0.1c-0.2-1.4-0.5-3.2-0.5-4.7c0,0,0,0,0-0.1l0,0l2.4-0.8c0.8,1.2,1.7,3,2.3,4.3
			c0.5,1,1,2,1.4,2.8l-5.2,1.8C88.8,293.8,88.7,293.3,88.6,292.8z M88.3,284.1c0.1-0.1,0.1-0.1,0.2-0.1c0.1,0,0.1,0,0.2,0
			L88.3,284.1z M95.8,291.9L95.8,291.9c-0.1-0.2-0.3-0.5-0.4-0.7c-0.4-0.8-0.8-1.6-1.2-2.3c-0.4-0.7-0.7-1.4-1.1-2.1
			s-0.7-1.4-1.1-1.9l3.9-1.3c0,0.3,0.1,0.6,0.1,1c0.1,1,0.3,2.1,0.5,3.2c0.2,1.1,0.4,2.6,0.5,3.8L95.8,291.9z M98.8,290.8
			c-0.1-1-0.3-2.2-0.5-3.5c-0.2-1.1-0.5-3-0.6-4.6l1.7-0.6c0.2,0.3,0.4,0.7,0.5,1c0.5,1.1,1.1,2.4,1.6,3.7c0.4,0.9,0.7,1.8,1.1,2.5
			L98.8,290.8z M98,280.7c0-0.1,0.1-0.1,0.1-0.1c0,0,0,0,0.1,0L98,280.7z M104.4,288.9c-0.4-0.9-0.8-1.8-1.1-2.6
			c-0.3-0.8-0.7-1.7-1-2.5c-0.3-0.8-0.7-1.5-1-2.2l0,0l3.9-1.4c0,0.6,0,1.3,0,2c0,0.7,0.1,1.5,0.1,2.4c0,0.3,0,0.6,0,0.9
			c0,0.6,0.1,1.3,0.1,2c0,0.3,0,0.7,0,1L104.4,288.9z M107.3,287.9c0-1-0.1-2.1-0.1-3.3c0-0.7-0.1-1.6-0.1-2.4s0-1.8,0-2.5l1.3-0.5
			c0.6,1.2,1.3,2.8,1.8,4c0.3,0.6,0.5,1.2,0.7,1.7c0.2,0.5,0.5,1,0.7,1.5L107.3,287.9z M114.1,285.5l-0.6,0.2
			c-0.5-1-1.1-2.3-1.5-3.4c-0.6-1.5-1.2-2.8-1.7-3.9l2.7-1c0.1,1.3,0.4,2.9,0.6,4.5c0.1,0.8,0.3,1.8,0.4,2.7
			C114,284.9,114,285.2,114.1,285.5L114.1,285.5z M112.9,275.3c0,0.1,0,0.2,0,0.2l-3.7,1.3c-0.1-0.2-0.2-0.3-0.4-0.4
			c-0.2-0.2-0.3-0.3-0.5-0.5c-0.3-0.3-0.7-0.4-1-0.4c-0.2,0-0.4,0-0.6,0.1c-0.6,0.2-1,0.7-1.3,1.5c-0.1,0.3-0.2,0.6-0.2,1l-5.1,1.8
			c-0.4-0.5-0.8-0.8-1.3-1.1c-0.5-0.2-0.9-0.2-1.5-0.1c-0.4,0.2-0.8,0.4-1,0.8c-0.3,0.5-0.5,1.1-0.6,1.8l-5.1,1.8
			c-0.6-0.6-1.1-1-1.8-1.1c-0.2,0-0.4-0.1-0.6,0c-0.2,0-0.4,0.1-0.6,0.1c-0.5,0.2-0.8,0.4-1.1,0.8c-0.4,0.5-0.6,1.2-0.7,2l-2.7,1
			l-5.1,1.7c-0.5-0.4-0.9-0.7-1.3-0.9l0,0c-0.3-0.1-0.6-0.2-1-0.1c-0.5,0.1-0.9,0.4-1.2,0.9c-0.2,0.4-0.3,0.8-0.4,1.3l-7.5,2.6
			c-0.6-0.4-1.2-0.7-1.8-0.8c-0.3,0-0.7,0-1,0.2c-0.2,0.1-0.4,0.2-0.6,0.3c-0.5,0.4-0.9,1-1,1.8l-9.1,3.2c-0.2-0.3-0.4-0.5-0.6-0.8
			c0,0,0,0,0-0.1c-0.3-0.4-0.9-0.5-1.3-0.2c-0.3,0.2-0.5,0.6-0.4,1c0,0,0,0.1,0,0.1c0,0.1,0.1,0.1,0.1,0.2c0.1,0.1,0.2,0.3,0.3,0.5
			l-1.5,0.5c0,0,0,0,0,0c-0.2,0.1-0.4,0.2-0.7,0.4c-0.1-0.4-0.2-0.8-0.2-1.2c0-0.4,0-0.7,0-1.1c0-0.7,0.2-1.4,0.4-2.1
			c0.1-0.3,0.3-0.7,0.4-1c0.3-0.7,0.8-1.4,1.3-2c0.8-1,1.9-2,3.2-2.9c0.9-0.6,1.8-1.2,2.9-1.8c2.7-1.5,6-3,10-4.3
			c1.8-0.6,3.7-1.3,5.8-1.9c1-0.3,2.1-0.7,3.2-1c0.6-0.2,1.1-0.4,1.7-0.5c0.6-0.2,1.2-0.4,1.8-0.6c5.8-1.8,12.3-3.9,19.9-6.5
			c1.1-0.4,2.2-0.8,3.3-1.2c3.2-1.1,6-1.5,8.4-1.3c1.4,0.2,2.7,0.6,3.8,1.2c0.2,0.1,0.4,0.3,0.6,0.4c0.4,0.3,0.8,0.6,1.1,0.9
			c0.3,0.3,0.6,0.7,0.9,1c0.4,0.5,0.7,1,0.9,1.5c0.1,0.3,0.3,0.6,0.4,0.8c-0.5-0.1-0.9-0.1-1.3-0.1c-0.1-0.1-0.2-0.2-0.3-0.3
			c-1-0.8-2-1.2-2.9-0.9C113.4,273.3,113,274.1,112.9,275.3z M115.1,274.8l-0.2,0.1c0,0,0,0,0-0.1C115,274.8,115,274.8,115.1,274.8z
			 M119,283.8l-3.1,1.1c-0.1-0.5-0.1-1-0.2-1.5c-0.1-0.5-0.2-1.1-0.3-1.7c-0.2-1.3-0.5-3.3-0.6-4.8l2.2-0.8c0.2,0.1,0.3,0.3,0.5,0.4
			c0.3,0.3,0.6,0.6,0.9,0.8c0.1,0.1,0.3,0.3,0.4,0.4l0,0c0,0,0,0,0,0c0,0.2,0,0.4,0,0.5c0.1,0.2,0.2,0.3,0.3,0.4l0.5,0.3l0.3,0.2
			l-0.3,0.9c-0.1,0.2,0,0.4,0,0.6c0.1,0.3,0.3,0.5,0.6,0.5c0.1,0,0.2,0,0.4,0c0.4,0,0.7-0.3,0.8-0.7l0.1-0.3l0.3,0.2c0,0,0,0,0.1,0
			c0,0.2-0.1,0.5-0.1,0.7C121.4,282.5,120.5,283.3,119,283.8z"/>
		<path class="st1" d="M98,280.7l0.2-0.1c-0.1,0-0.1,0-0.1,0C98.1,280.6,98,280.7,98,280.7z"/>
		<path class="st1" d="M114.9,274.8l0.2-0.1C115,274.8,115,274.8,114.9,274.8C114.9,274.8,114.9,274.8,114.9,274.8z"/>
		<path class="st1" d="M46.9,4.9C47,5,47,5.1,47.1,5.3c0.3,0.8,0.9,1.9,2,2.6c0.2,0.2,0.5,0.3,0.7,0.4c0.3,0.2,0.7,0.3,1.1,0.3
			c0,0.1,0,0.1,0,0.2c0.1,0.2,0.2,0.5,0.3,0.7c0.4,1,1,1.9,1.6,2.7s1.5,1.4,2.4,2c2,1.2,4.5,1.7,7.6,1.7c1.7,0,3.5-0.2,5.5-0.6
			c0.1,0,2.3-0.5,4.1-0.9c1.7-0.5,3.5-1,5.5-1.7c0.2-0.1,0.3-0.1,0.5-0.2c0,0,3.9-1.4,4.9-1.8c1.9-0.7,4-1.5,6.1-2.3
			c1.4-0.5,4.2-1.7,5.2-2c2.1-0.8,4.2-1.5,6.4-2.4c0,0,3.3-1.2,4.2-1.5c2.2-0.8,4.6-1.7,7.1-2.5h-5.6c-6.5,2.3-12.1,4.4-17.1,6.3
			C85,8.1,81,9.6,77.4,10.9c-6,2.1-10.7,3.1-14.5,3.1c-0.9,0-1.7,0-2.5-0.1c-1.9-0.2-3.4-0.8-4.7-1.7c-1.2-0.9-2.1-2.1-2.8-3.6
			c0.3,0,0.5-0.1,0.8-0.2s0.5-0.1,0.8-0.2l1-0.3l4.6-1.6c0.8,0.5,1.6,0.9,2.3,0.9c0.2,0,0.5,0,0.7,0c0.2,0,0.3-0.1,0.4-0.1
			c0.4-0.2,0.7-0.4,1-0.8c0.3-0.5,0.5-1.1,0.5-1.8L72.4,2l0,0c0.3,0.4,0.7,0.7,1,1C74,3.4,74.5,3.5,75,3.4c0.7-0.2,1.1-0.8,1.3-1.7
			c0.1-0.3,0.1-0.7,0.1-1.1L78.2,0H71c0.1,0.1,0.2,0.3,0.3,0.4L65,2.6c0-0.5-0.1-1.1-0.2-1.6c0-0.3-0.1-0.6-0.1-1h-1.9
			c0,0.1,0,0.2,0,0.3c0.1,0.6,0.2,1.3,0.2,1.9c0,0.3,0.1,0.7,0.1,1l-2.8,1c-1.2-1-2.7-2.5-4.1-4.2h-2.4c0.9,1.1,1.9,2.3,2.9,3.4
			c0.5,0.5,1.1,1.1,1.6,1.5l-4.4,1.5c-0.8,0.3-1.4,0.4-2.1,0.4c-0.3,0-0.6-0.1-0.9-0.1s-0.5-0.2-0.8-0.4C50,6.2,49.9,6.1,49.8,6
			c-0.1-0.1-0.2-0.2-0.3-0.4l0-0.1l0,0l0.3,0.2c0.4,0.3,1,0.2,1.3-0.2c0.3-0.4,0.2-1-0.2-1.3L50,3.6l0.3-1c0.1-0.5-0.1-1-0.6-1.2
			c-0.3-0.1-0.5,0-0.7,0.1c-0.2,0.1-0.4,0.3-0.5,0.6l-0.1,0.3c0-0.6,0.1-1,0.3-1.4c0.1-0.3,0.3-0.5,0.5-0.7c0.1-0.1,0.2-0.2,0.3-0.3
			h-2.3C46.5,1.2,46.2,2.8,46.9,4.9z M74.5,1.3c0,0.1,0,0.1,0,0.2c0,0-0.1-0.1-0.1-0.1L74.5,1.3z"/>
		<path class="st1" d="M129.4,50.5c1.4,1.7,3.5,2.9,5.3,3.2c0.3,0,0.5,0.1,0.8,0.1c1.4,0,3-0.1,4.6-0.2c2.2-0.1,4.6-0.3,5.7-0.1
			c1.1,0.2,2.1,0,3.2-0.7c1.2-0.8,2.1-2.1,2.7-3.7c0.2-0.5,0.2-1,0.3-1.5l0-0.1c0.2-1.3,0-2.7-1-3.9c-1.8-2.3-5.3-4-9.5-4.4
			c-1.2-0.1-2.3-0.3-3.4-0.5c-3.9-0.7-7.3-1.3-9.9,3.9c-0.3,0.6-0.5,1.3-0.6,1.9c-0.1,0.8-0.1,1.7,0.1,2.6c0,0,0,0,0,0c0,0,0,0,0,0
			C127.9,48.3,128.5,49.5,129.4,50.5z M148,44.2L148,44.2c0-0.1,0.1,0,0.1,0v0c0.1,0.1,0.2,0.1,0.4,0.2c0.2,0.2,0.3,0.4,0.5,0.6
			c0.5,0.7,0.6,1.3,0.5,2l0,0.1c-0.3,1.6-1,2.9-2,3.6c-0.1,0.1-0.1,0.2-0.3,0.2l0-0.1c0,0-0.1,0-0.1,0.1L148,44.2z M143.4,42.7
			l0.1-0.6c0.9,0.2,1.8,0.5,2.6,0.8l-0.1,0.4l-1.1,7.6c-0.7,0-1.5,0-2.4,0L143.4,42.7z M138.5,42.2l0.1-0.8c0.7,0.1,1.5,0.2,2.4,0.3
			l-0.1,0.7l-1,8.8c-0.8,0.1-1.7,0.1-2.4,0.1L138.5,42.2z M134,42.4l0.2-1.7c0.5,0,1.2,0,1.9,0.1l-0.1,1.3l-1,8.9c0,0,0,0.1,0,0.1
			c-0.5-0.1-1.2-0.4-1.8-0.8L134,42.4z M130,45c0.1-0.4,0.2-0.8,0.4-1.2c0,0,0-0.1,0.1-0.1c0.3-0.6,0.7-1.2,1-1.5l-0.1,1.1l-0.5,5
			C130.3,47.4,129.8,46.3,130,45z"/>
		<path class="st1" d="M113.6,66.4c0.6,0.4,1.4,0.9,2.3,1.5c2.9,2,5.5,3.7,7.8,4.8c0.1,0.1,0.2,0.1,0.2,0.1c2.1,1,3.8,1.3,5.1,0.8
			c0.2-0.1,0.3-0.2,0.5-0.3c0,0,0,0,0,0c0,0,0,0,0,0c2.3-1.6,3.6-3.6,4-5.8c0-0.3,0.1-0.6,0.1-0.9c0.2-4.4-3.2-8.8-6.3-12.7
			c-0.3-0.4-0.7-0.9-1-1.3c-1.8-2.3-4-3.5-6.6-3.8c-3.3-0.3-7.1,1.2-10.1,4c-0.3,0.3-0.5,0.5-0.7,0.8c-0.5,0.7-0.9,1.5-1,2.4
			C107.2,60,110.8,64.7,113.6,66.4z M130.7,67.2c-0.1,0.6-0.1,1.2-0.8,1.6c-0.2,0.9-1,1.7-2.1,2.5c-0.2,0.1-0.5,0.2-0.9,0.1
			c-0.2,0-0.3-0.1-0.6-0.2l0.4-0.5l3.1-3.7c0,0.1,0,0.2,0.1,0.2l0.2-0.2l0.8-1C130.9,66.5,130.8,66.8,130.7,67.2z M130.3,63.2
			l-1.4,1.6l-4.9,5.4c-0.7-0.4-1.5-0.8-2.4-1.4l5.5-6.3l1.7-1.9C129.4,61.4,129.9,62.3,130.3,63.2z M125.7,56.1
			c0.6,0.7,1.1,1.5,1.7,2.2l-1.7,2l-6.1,7c-0.7-0.5-1.5-1-2.3-1.5c-0.2-0.1-0.3-0.2-0.5-0.4l7.2-7.5L125.7,56.1z M120.3,54.1
			l1.7-1.8c0.8,0.4,1.4,1,2.1,1.8l-1.8,1.9l-7.7,8.1c-0.7-0.5-1.4-1.2-2.1-2L120.3,54.1z M110.3,56.5c0.1-0.7,0.4-1.2,1-1.7
			c1.3-1.2,3.1-2.4,5.1-3c0.9-0.3,1.9-0.4,2.9-0.4l-1.1,1.1l-7.2,7.3C110.5,58.8,110.1,57.5,110.3,56.5z"/>
		<path class="st1" d="M276.6,10.2h2.4v2.5c0,0.6,0.5,1.1,1.1,1.1s1.1-0.5,1.1-1.1v-2.5h1.9c0.6,0,1.1-0.5,1.1-1.1S283.7,8,283.1,8
			h-1.9V4.9c0-0.6-0.5-1.1-1.1-1.1S279,4.3,279,4.9V8h-2.4c-0.6,0-1.1,0.5-1.1,1.1C275.5,9.7,276,10.2,276.6,10.2z"/>
		<path class="st1" d="M99.5,28.7h2.4v2.5c0,0.6,0.5,1.1,1.1,1.1s1.1-0.5,1.1-1.1v-2.5h1.9c0.6,0,1.1-0.5,1.1-1.1s-0.5-1.1-1.1-1.1
			h-1.9v-3.1c0-0.6-0.5-1.1-1.1-1.1s-1.1,0.5-1.1,1.1v3.1h-2.4c-0.6,0-1.1,0.5-1.1,1.1S98.9,28.7,99.5,28.7z"/>
		<path class="st1" d="M218.7,169.6c0-0.6-0.5-1.1-1.1-1.1h-1.9v-3.1c0-0.6-0.5-1.1-1.1-1.1s-1.1,0.5-1.1,1.1v3.1h-2.4
			c-0.6,0-1.1,0.5-1.1,1.1c0,0.6,0.5,1.1,1.1,1.1h2.4v2.5c0,0.6,0.5,1.1,1.1,1.1s1.1-0.5,1.1-1.1v-2.5h1.9
			C218.2,170.7,218.7,170.2,218.7,169.6z"/>
		<path class="st1" d="M131.6,215.8c-0.2-0.4-0.4-1-0.4-1.2c0,0,0,0,0,0c0.5-1.6,0.1-4.3-0.7-5.6c-0.4-0.6-0.9-1.1-1.5-1.2
			c-1.9-0.5-4.1,1-6.4,2.6c-0.8,0.5-1.5,1-2.1,1.4c-1.8,1.1-6.3,1.9-7.9,2.1c-0.5-0.3-1.1-0.6-1.6-0.8c-0.2-0.1-0.5-0.2-0.8-0.1
			c-1.8,0.3-5.2-0.2-8.7-0.7c-6.3-0.8-12.9-1.7-16.4,0.2c-3.9,2.1-7.9,7.3-9.5,12c-0.1,0.2-0.2,0.5-0.2,0.7
			c-0.5,1.8-0.6,3.5-0.3,4.8c0.4,1.7,1.5,3,3.2,4.1c4.4,2.7,12.8,2.6,18.4,1.1c0.8-0.2,1.6-0.5,2.4-0.8c4.2-1.8,8-5.1,11.3-8.1
			c1.3-1.1,2.5-2.2,3.6-3.1c0.2-0.2,0.4-0.5,0.4-0.8c0.1,0,0.1,0,0.2-0.1c0.4-0.1,0.8-0.2,1.4-0.4c2.1-0.6,5.3-1.4,6.4-1.1
			c2.5,0.8,7.3,0.4,9.1-1.2c0.4-0.4,0.6-0.7,0.7-1.1C132.4,217.5,131.9,216.5,131.6,215.8z M108.7,221.7c0.2,0.1,1,0.4,2,0.8
			c-0.7,0.6-1.4,1.2-2.1,1.8c-3.8,3.4-8,7.2-12.7,8.4c-5,1.3-12.7,1.4-16.4-0.8c-1.1-0.7-1.8-1.5-2-2.5c-0.2-0.9-0.1-2.2,0.3-3.6
			c0.5-1.7,1.4-3.6,2.6-5.3c1.7-2.5,3.9-4.8,6-5.9c2.8-1.5,9.5-0.6,14.9,0.1c0.1,0,0.1,0,0.2,0c3.6,0.5,6.7,0.9,8.8,0.7
			c0.8,0.4,1.7,0.9,2.5,1.3c-0.6,0.4-1.2,0.7-1.7,1c-2.6,1.6-2.9,1.8-3.1,2.4C107.7,220.8,108.1,221.5,108.7,221.7z M123.1,218.5
			c-1.5-0.5-4.1,0-6.8,0.7c-0.8,0.2-1.6,0.5-2.4,0.7c-0.5,0.1-1.1,0.3-1.2,0.3c-0.2,0-0.3,0.1-0.4,0.1c0,0,0,0,0,0l0,0
			c-0.1,0-0.2-0.1-0.4-0.2c0.2-0.1,0.3-0.2,0.5-0.3c2.1-1.2,3.1-1.9,3.6-2.3c0,0,0,0.1,0,0.1c0,0,0.1-0.1,0.1-0.1
			c0.3-0.3,0.6-0.5,0.7-0.7c0.1-0.3-0.1-0.8-0.3-1.1c0,0-0.1,0-0.1-0.1c1.9-0.4,4.2-1,5.6-1.9c0.7-0.4,1.5-1,2.3-1.5
			c1.2-0.9,3.3-2.2,4.2-2.2c0.4,0.6,0.8,2.6,0.4,3.7c0,0,0,0,0,0c-0.4,1.3,0.2,2.3,0.6,3.2c0.1,0.2,0.3,0.6,0.3,0.8
			C128.7,218.7,125,219.1,123.1,218.5z"/>
		<path class="st1" d="M193.4,64.2c1,0.9,2.1,1.6,3.4,2.2c4.3,2.1,9.4,2.4,13.8,2.4c1.4,0,2.8-0.1,4.2-0.1c1.8,0,3.6-0.1,5.2-0.1
			c-0.3,0.1-0.5,0.2-0.8,0.3c0.3,0,0.5,0,0.8,0c0,0,0,0,0.1,0s0,0,0.1,0c0.3,0,0.5-0.2,0.8-0.4c0.1,0,0.2,0,0.3,0
			c1.8,0.8,6.7,3.1,7.6,4.4c1.6,2.6,3.8,5.8,6.5,5.8c0,0,0.1,0,0.1,0c2.1,0,2.8-2.1,3.2-3.4c0.2-0.6,0.5-1.5,0.8-1.7
			c1.4-0.9,3.2-3.2,3.6-5.1c0.2-1-0.1-1.7-0.3-2.1c-1.3-1.8-3.7-2.1-6.4-2.4c-0.7-0.1-1.5-0.2-2.3-0.3c-2.3-0.4-6.6-2.9-8.2-3.9
			c-0.3-0.6-0.5-1.2-0.8-1.8c-0.1-0.3-0.3-0.5-0.5-0.7c-1.7-1.1-3.9-3.2-6.3-5.5c-4.5-4.3-9.5-9.2-14-10.1c-1.4-0.3-2.9-0.5-4.2-0.5
			c-3.7,0-6.7,1.2-8.8,3.3c-1,1-1.7,2.2-2.2,3.7C187.1,53,188.7,59.9,193.4,64.2z M225.6,65.4c0.8,0,1.3-0.3,1.6-0.8
			c0.1-0.1,0.1-0.3,0.1-0.5c1.9,1,4.3,2.1,6,2.4c0.8,0.1,1.6,0.2,2.4,0.3c1.8,0.2,3.6,0.4,4.3,1.1c-0.1,0.7-1.3,2.5-2.3,3.2
			c-1.1,0.7-1.5,2.2-1.9,3.2c-0.2,0.4-0.4,1.5-0.6,1.5c-0.6,0-1.8-0.8-4.1-4.4c-1.1-1.8-4.6-3.6-8.2-5.2c-0.2-0.1-0.4-0.2-0.6-0.3
			c-0.5-0.2-1.1-0.5-1.3-0.6c-0.1-0.1-0.3-0.2-0.4-0.2c-0.1-0.1-0.1-0.3-0.2-0.4c0,0,0,0,0,0c0,0,0,0,0,0c0.2,0,0.4,0.1,0.6,0.1
			c0.9,0.2,1.7,0.3,2.3,0.4c0,0,0,0,0,0h0C224.4,65.3,225.1,65.4,225.6,65.4z M191.5,49.2c1-2.9,3.3-4.2,5.4-4.8
			c1.1-0.3,2.2-0.4,3-0.4c1.1,0,2.4,0.1,3.6,0.4c3.7,0.8,8.6,5.6,12.6,9.4c2.3,2.3,4.5,4.4,6.4,5.6c0.4,0.9,0.8,1.9,1.2,2.9
			c-0.2,0-0.5-0.1-0.8-0.1c-0.5-0.1-0.9-0.2-1.4-0.2c-1.8-0.3-2.9-0.5-3.4-0.5c-0.9,0-1.2,0.5-1.4,0.8c-0.2,0.4-0.2,1,0.1,1.5
			c0.1,0.2,0.5,1,1.1,2.1c-1,0-2,0-3.1,0.1c-1.3,0-2.7,0.1-4.1,0.1c-4.1,0-8.8-0.2-12.6-2.1C192.1,61,189.8,53.8,191.5,49.2z"/>
		<path class="st1" d="M151.7,95.2c-2.8,0-5,2.2-5,5s2.2,5,5,5s5-2.2,5-5S154.4,95.2,151.7,95.2z M151.7,102.7
			c-1.4,0-2.5-1.1-2.5-2.5s1.1-2.5,2.5-2.5c1.4,0,2.5,1.1,2.5,2.5S153,102.7,151.7,102.7z"/>
		<path class="st1" d="M200.5,20c2.8,0,5-2.2,5-5s-2.2-5-5-5s-5,2.2-5,5S197.7,20,200.5,20z M200.5,12.5c1.4,0,2.5,1.1,2.5,2.5
			s-1.1,2.5-2.5,2.5S198,16.4,198,15S199.1,12.5,200.5,12.5z"/>
		<path class="st1" d="M271,276.2c-2.8,0-5,2.2-5,5s2.2,5,5,5s5-2.2,5-5S273.8,276.2,271,276.2z M271,283.7c-1.4,0-2.5-1.1-2.5-2.5
			s1.1-2.5,2.5-2.5s2.5,1.1,2.5,2.5S272.4,283.7,271,283.7z"/>
		<path class="st1" d="M62,250.5c-2.8,0-5,2.2-5,5c0,2.8,2.2,5,5,5c2.8,0,5-2.2,5-5C67,252.7,64.8,250.5,62,250.5z M62,258
			c-1.4,0-2.5-1.1-2.5-2.5c0-1.4,1.1-2.5,2.5-2.5c1.4,0,2.5,1.1,2.5,2.5C64.5,256.9,63.4,258,62,258z"/>
		<path class="st1" d="M8,164.8c2.8,0,5-2.2,5-5s-2.2-5-5-5s-5,2.2-5,5S5.2,164.8,8,164.8z M8,157.3c1.4,0,2.5,1.1,2.5,2.5
			s-1.1,2.5-2.5,2.5s-2.5-1.1-2.5-2.5S6.6,157.3,8,157.3z"/>
		<path class="st1" d="M91.3,195.3c2.8,0,5-2.2,5-5s-2.2-5-5-5s-5,2.2-5,5S88.6,195.3,91.3,195.3z M91.3,187.8
			c1.4,0,2.5,1.1,2.5,2.5s-1.1,2.5-2.5,2.5s-2.5-1.1-2.5-2.5S90,187.8,91.3,187.8z"/>
		<path class="st1" d="M243.4,205.2l14.4-4.4l30.7-9.4l3.5-1.1c0.5-0.1,0.5-0.8,0.3-1.3l-1.1-3.5c0.7-0.8,1.3-2,0.6-4
			c-0.3-1.1-0.8-1.9-1.3-2.2l0.3-0.1c0.2-0.1,0.4-0.4,0.5-0.6c0.1-0.2,0.1-0.6,0-0.8c-0.1-0.2-1.8-5-6.8-8.9
			c-2.6-2-6.4-3.9-11.7-4.4c-4.1-0.4-9.2,0-15.3,1.9c-1,0.3-1.9,0.6-2.8,0.9c0,0,0,0,0,0c0,0,0,0-0.1,0c-7.5,2.8-12.8,6.8-15.8,11.9
			c0,0,0,0,0,0c-0.1,0.3-0.3,0.5-0.4,0.8c-3.9,7.4-1.7,14.3-1.6,14.6c0.1,0.3,0.4,0.5,0.6,0.7c0.1,0,0.1,0,0.2,0.1
			c0.1,0,0.2,0,0.3,0l0,0c0,0,0.3-0.1,0.3-0.1c0,0-0.1,0-0.1,0.1c-0.1,0.6-0.2,1.3,0,2.2c0.6,1.9,2,2.6,2.7,3.1l1.1,3.6
			C242.2,204.9,243,205.3,243.4,205.2z M238.4,193.4c-0.3-1.8-1-7.1,1.7-12.4c0-0.1,0-0.1,0.1-0.2l1.2,0.3c0.2,0,0.3,0,0.5,0
			c0,0,0.1,0,0.1-0.1c0.1,0,0.2-0.1,0.2-0.1c0,0,0.1-0.1,0.1-0.1c0.1-0.1,0.1-0.2,0.2-0.3c0,0,0,0,0,0c0-0.1,0-0.2,0-0.4
			c-0.1-0.3-0.3-0.7-0.7-0.7l-0.7-0.2c0,0,0,0,0,0c1.2-1.8,2.8-3.5,4.7-5l1.9,1.2c0.2,0.1,0.5,0.2,0.7,0.1c0.2-0.1,0.4-0.2,0.5-0.4
			c0.3-0.4,0.1-1-0.3-1.2l-1.3-0.8c1.9-1.3,4-2.4,6.4-3.4l-0.4,1.7c-0.1,0.5,0.2,1,0.7,1.1c0.2,0,0.3,0,0.5,0
			c0.3-0.1,0.5-0.3,0.6-0.7l0.7-2.9c0.7-0.3,1.5-0.5,2.3-0.8c5.3-1.6,10.2-2.2,14.6-1.8l-1.2,1.5c-0.3,0.4-0.3,1,0.1,1.3
			c0.2,0.2,0.6,0.3,0.8,0.2c0.2,0,0.3-0.1,0.4-0.3l2-2.4c0.9,0.2,1.8,0.4,2.6,0.6c0.9,0.3,1.8,0.6,2.7,1l-0.8,0.4
			c-0.1,0-0.2,0.1-0.2,0.2c-0.3,0.3-0.3,0.7-0.1,1.1c0.2,0.4,0.7,0.6,1.1,0.4c0.1,0,0.1,0,0.2-0.1l0.1,0l1.7-0.9
			c0.5,0.3,1,0.6,1.4,0.9c3.4,2.6,5.3,5.8,6,7.3l-5.4,1.8l-0.1,0l0.2-1c0.1-0.3,0-0.5-0.1-0.7c-0.1-0.2-0.3-0.4-0.6-0.4
			c-0.5-0.1-1,0.1-1.1,0.6l-0.5,1.8c0,0-0.1,0.1-0.1,0.1l-23.2,7.2l-0.5-1.7c-0.1-0.5-0.7-0.7-1.1-0.6c-0.5,0.1-0.7,0.7-0.6,1.1
			l0.5,1.7l-4.7,1.4l0,0l-1.2-1.6c-0.2-0.3-0.6-0.4-0.9-0.3c-0.1,0-0.2,0.1-0.3,0.2c-0.4,0.3-0.4,0.9-0.1,1.3l0.8,1l-9.4,2.9l0,0
			l0.2-0.7c0-0.1,0-0.2,0-0.4c-0.1-0.4-0.3-0.6-0.7-0.7c-0.5-0.1-0.9,0.3-1.1,0.8l-0.4,1.9L238.4,193.4z M264.5,187l15.9-4.9
			l2.4-0.8c-3,1.8-6.1,3.6-7.3,4.1c-1.1,0.4-5.3,1-10.1,1.5C265.2,186.9,264.9,187,264.5,187z M242.2,199.4
			c-0.5-0.3-1.7-0.8-2.1-2.2c0,0,0,0,0-0.1c-0.3-1.2,0.1-2.1,0.4-2.5c0,0,0-0.1,0.1-0.1c0,0,0.1-0.1,0.1-0.1l1.6-0.5l0.3-0.1l9.6-3
			c0,0,0,0,0.1,0c0,0,0.1,0,0.1,0l3.8-1.2c0,0,0.1,0,0.1,0c1.5-0.1,12.2-1.1,17.5-1.9c0.2,0,0.4-0.1,0.6-0.1c0.4-0.1,0.7-0.1,1-0.2
			c0.3-0.1,0.5-0.1,0.7-0.2c0.1,0,0.2-0.1,0.2-0.1c2.4-0.9,10.9-6.3,12.4-7.2c0.5,0.2,1.2,0.8,1.6,2c0,0,0,0,0,0
			c0.5,1.6-0.2,2.3-0.3,2.8L242.2,199.4z M243.1,201l46.6-14.3l0.6,1.9l0.1,0.2l-46.8,14.4l-0.7-2.2L243.1,201z"/>
		<path class="st1" d="M244.1,215.8l2,6.5c0.1,0.3,0.4,1.4,1.3,2c0.4,0.3,1.4,0.6,2.5,0.3l42.8-13.1l4.6-1.4c0,0-0.1-0.1,0-0.1
			c0.9-0.4,2.3-1.9,1.6-4.1l-1.9-6.2c0.3-0.4-0.4-1.4-1.3-2c-0.2-0.1-0.3-0.3-0.8-0.3l-0.5-1.8c-0.1-0.5-0.4-0.6-0.9-0.5l-0.2,0
			l-18.6,5.7l-29,8.9c-0.5,0.1-1,0.5-0.9,1l0.4,1.5c0,0.1-0.5,0.5-0.8,1c0,0-0.1,0-0.1,0c0,0,0,0,0,0.1
			C244,213.9,243.8,214.8,244.1,215.8z M292.9,197.1l0.1,0.4l-46,14.1l-0.1-0.4L292.9,197.1z M255.8,210.9l2.3-0.7
			c-0.1,0.5-0.1,1,0,1.4c0,0,0,0,0,0c0,0,0,0,0,0c0.1,0.2,0.3,1.5-0.2,1.6c-0.4,0.1-1-0.9-1.1-1.4c0,0,0-0.1,0-0.1c0,0,0,0,0,0
			C256.5,211.4,256.1,210.8,255.8,210.9z M251.1,213.3c0,0.1-0.1,0.1-0.1,0.1l1.1,3.5c0.2,0.6-0.2,0.7-0.4,0.8
			c-0.6,0.2-0.4-0.4-0.9-0.6l-1.3-4.3l2.1-0.6C251.1,212.3,251,213,251.1,213.3z M246.7,213.5c0,0,0.2,0.1,0.2,0.1l0.6-0.2l1.3,4.4
			c0.7,0.9,1.6,2.2,3.3,1.7c0,0,0,0,0,0c0.4-0.1,0.7-0.3,1-0.5c0.2-0.2,0.4-0.4,0.5-0.6c0.5-0.9,0.5-1.9,0.1-1.9l-1-3.4
			c0.4-0.2,0.2-0.3,0.3-0.5c0,0,0,0,0.1,0c0,0,0.1-0.1,0.1-0.1c0.1-0.1,0.2-0.1,0.3-0.2c0,0,0,0,0,0c0.1,0,0.1-0.1,0.2-0.1
			c0,0,0,0,0.1,0c0.1,0,0.3-0.1,0.4-0.1c0,0,0.1,0,0.1,0c0.4,0,0.7,0.2,0.8,0.4c0.3,0.8,0.8,1.8,1.6,2.3c0.5,0.3,1.1,0.4,1.7,0.2
			c1.6-0.5,1.9-2.3,1.4-3.9c0,0,0-0.1,0-0.1c-0.1-0.4-0.1-1.3,0.7-1.5c0.1,0,0.2,0,0.3,0l2.2-0.7l17.1-5.2l0.9-0.3l0.1,0l7.6-2.3
			l5-1.5c0.1,0,0.3-0.1,0.5-0.1c0.4-0.1,0.6-0.1,0.8,0c0.3,0.2,0.4,0.6,0.4,0.8c0,0-0.1,0.1-0.1,0.1l1.9,6.2c0.4,1.2-0.3,1.5-0.4,2
			l-2.1,0.7l-45.2,13.9c-0.3,0.1-0.7,0-0.9-0.1c-0.2-0.1-0.5-0.6-0.5-0.7c0,0,0,0,0,0c0-0.1-0.1-0.1-0.2-0.2l-2-6.5
			C245.5,214.2,246.5,213.7,246.7,213.5z"/>
		<path class="st1" d="M291.5,192.2c-0.7-0.3-1.5-0.8-2.8-0.4c-1.3,0.4-1.7,1.2-1.9,1.7c-0.2,0.4-0.2,0.4-0.5,0.5
			c-0.6,0.2-0.8,0.1-1.2-0.1c-0.5-0.3-1.2-0.7-2.5-0.2c-1.3,0.4-1.7,1.2-1.9,1.7c-0.2,0.4-0.2,0.4-0.5,0.5c-0.6,0.2-0.8,0.1-1.2-0.1
			c-0.5-0.3-1.2-0.7-2.5-0.2c-1,0.3-1.4,1.1-1.6,1.6c-0.2,0.5-0.3,0.7-0.9,0.9c-0.5,0.2-0.7,0.1-1.1-0.1c-0.4-0.3-1.1-0.7-2.2-0.3
			c-1.3,0.4-1.7,1.1-2,1.6c-0.2,0.4-0.3,0.5-0.9,0.7c0,0,0,0-0.1,0s-0.1,0-0.1,0c-0.5,0.2-0.7,0.1-1.1-0.1c-0.4-0.3-1.1-0.7-2.2-0.3
			c-1.3,0.4-1.7,1.1-2,1.6c-0.2,0.4-0.3,0.5-0.9,0.7c-0.2,0.1-0.3,0-0.8-0.2c-0.6-0.3-1.4-0.9-2.7-0.5c-1.3,0.4-1.7,1.2-1.9,1.7
			c-0.2,0.4-0.2,0.4-0.5,0.5c-0.6,0.2-0.8,0.1-1.2-0.1c-0.5-0.3-1.2-0.7-2.5-0.2c0,0,0,0,0,0c0,0,0,0,0,0c-1.3,0.4-1.7,1.1-2,1.6
			c-0.2,0.4-0.3,0.6-0.9,0.7c-0.3,0.1-0.4,0-0.7-0.2c-0.5-0.3-1.2-0.7-2.6-0.3c-2,0.6-2.3,2.2-2.2,3c0.1,0.5,0.5,0.9,1,0.8
			c0.1,0,0.1,0,0.2,0c0.4-0.1,0.7-0.5,0.6-1c0-0.2,0-0.7,0.9-1c0.6-0.2,0.7-0.1,1.1,0.2c0.4,0.3,1.1,0.7,2.2,0.3
			c1.3-0.4,1.8-1,2-1.5c0.2-0.4,0.3-0.4,0.9-0.6c0,0,0,0,0,0c0,0,0,0,0,0c0.6-0.2,0.7-0.3,1.1,0c0.5,0.3,1.2,0.6,2.5,0.2
			c1.1-0.3,1.4-1.1,1.6-1.6c0.2-0.4,0.3-0.6,0.8-0.8c0.5-0.2,0.8,0,1.2,0.3c0.5,0.3,1.2,0.8,2.3,0.4c1.3-0.4,1.7-1.1,2-1.6
			c0.2-0.4,0.3-0.6,0.9-0.7c0.3-0.1,0.4-0.1,0.7,0.2c0.5,0.3,1.2,0.7,2.5,0.3c0,0,0.1,0,0.1,0c0,0,0.1,0,0.1,0
			c1.3-0.4,1.7-1.1,2-1.6c0.2-0.4,0.3-0.6,0.9-0.7c0.3-0.1,0.4-0.1,0.7,0.2c0.5,0.3,1.2,0.7,2.5,0.3c1.3-0.4,1.7-1.3,2-1.9
			c0.2-0.5,0.3-0.6,0.5-0.6c0.6-0.2,0.8-0.1,1.1,0.1c0.5,0.3,1.2,0.7,2.6,0.2c1.1-0.3,1.5-0.9,1.7-1.3c0.2-0.4,0.3-0.4,0.9-0.6
			c0.6-0.2,0.7-0.3,1.1-0.1c0.5,0.3,1.2,0.6,2.5,0.2c1.1-0.3,1.4-1.1,1.6-1.6c0.2-0.4,0.3-0.6,0.8-0.8c0.6-0.2,0.9,0,1.5,0.3
			c0.6,0.3,1.3,0.6,2.3,0.3c0.5-0.1,0.7-0.7,0.6-1.1c-0.1-0.5-0.7-0.7-1.1-0.6C292.2,192.6,292,192.5,291.5,192.2z"/>
		<path class="st1" d="M265,176.9l-2.6-0.3c-0.5,0-0.9,0.3-1,0.8c-0.1,0.5,0.3,0.9,0.8,1l2.6,0.2c0.1,0,0.2,0,0.4,0
			c0.3-0.1,0.6-0.4,0.6-0.8C265.8,177.4,265.5,177,265,176.9z"/>
		<path class="st1" d="M263.4,181.4c-0.5-0.1-1,0.2-1.1,0.7l-0.5,1.8c-0.1,0.5,0.2,1,0.7,1.1c0.2,0,0.3,0,0.5,0
			c0.3-0.1,0.5-0.3,0.6-0.6l0.4-1.8C264.2,182.1,263.9,181.6,263.4,181.4z"/>
		<path class="st1" d="M257.4,174.5l2.8,0.5c0.1,0,0.3,0,0.4,0c0.3-0.1,0.6-0.4,0.6-0.7c0.1-0.5-0.2-1-0.7-1l-2.8-0.5
			c-0.5-0.1-1,0.3-1,0.7C256.6,173.9,256.9,174.4,257.4,174.5z"/>
		<path class="st1" d="M256.5,182.7l3.5-1.1c0.5-0.1,0.7-0.7,0.6-1.1s-0.7-0.7-1.1-0.6l-3.5,1.1c-0.5,0.1-0.7,0.7-0.6,1.1
			C255.5,182.6,256,182.8,256.5,182.7z"/>
		<path class="st1" d="M252.4,179.5c0.2,0.1,0.4,0.1,0.6,0c0.3-0.1,0.5-0.3,0.6-0.5l1-2.5c0.2-0.5,0-1-0.5-1.2c-0.5-0.2-1,0-1.2,0.5
			l-1.1,2.5C251.7,178.8,251.9,179.3,252.4,179.5z"/>
		<path class="st1" d="M250.7,184.6l2.4,0.7c0.2,0,0.3,0,0.5,0c0.3-0.1,0.5-0.3,0.6-0.6c0.1-0.5-0.1-1-0.6-1.1l-2.4-0.7
			c-0.5-0.1-1,0.1-1.1,0.6C250,184,250.2,184.5,250.7,184.6z"/>
		<path class="st1" d="M244.2,184.1c0.1,0,0.3-0.1,0.4-0.3l2.4-2.6c0.3-0.4,0.3-0.9-0.1-1.3c-0.4-0.3-0.9-0.3-1.3,0.1l-2.4,2.6
			c-0.3,0.4-0.3,0.9,0.1,1.3C243.5,184.1,243.9,184.2,244.2,184.1z"/>
		<path class="st1" d="M241.2,188.2l2.5,0.5c0.1,0,0.3,0,0.4,0c0.3-0.1,0.6-0.4,0.6-0.7c0.1-0.5-0.2-1-0.7-1.1l-2.5-0.5
			c-0.5-0.1-1,0.2-1.1,0.7C240.4,187.7,240.7,188.1,241.2,188.2z"/>
		<path class="st1" d="M275.7,48.9c-0.4,0.5-0.3,1.2,0.2,1.6l13.2,10.8c0.2,0.2,0.5,0.3,0.7,0.3c0,0,0.1,0,0.1,0
			c0.3,0,0.6-0.2,0.8-0.4l2.8-3.5l6.4-7.9v-3.6l-7.5,9.2c-0.1-0.1-0.1-0.1-0.2-0.2L281.1,46L300,22.8v-3.6l-21.4,26.2L275.7,48.9z
			 M290.9,56.9c0.1,0.1,0.1,0.1,0.2,0.1l-1.4,1.8l-11.4-9.3l1.4-1.7L290.9,56.9z"/>
		<path class="st1" d="M15,31.4C15,31.4,15,31.4,15,31.4c0,0,1.3-2.3,3.1-1.9c1.9,0.4,4.9-0.1,6.9-1.8c1.5-1.3,2.2-3,2-4.9
			c-0.2-2-1.2-3.6-2.9-4.5c-2-1-4.6-0.8-5.9,0.1c-1.3,0.8-1.4,0.7-2,0c-1-1.2-2.6-1.4-4-0.5c-0.6,0.4-1,1-1.3,1.7l-5.9-4.8
			c-0.2-0.2-0.5-0.3-0.8-0.3c-0.3,0-0.6,0.2-0.8,0.4L0,19.2v3.6l2-2.4l8.4,6.9c0.2,1.3,0.9,2.6,2.1,3.7L0,46.2v3.6l14.9-18.2
			C14.9,31.5,15,31.5,15,31.4z M10.7,24.5l-7.2-5.9l1.1-1.4l6.9,5.7C11.2,23.3,10.9,23.9,10.7,24.5z M13.9,29.1
			c-0.8-0.9-1.2-1.7-1.3-2.6c-0.1-1.6,1.3-2.9,1.3-2.9c0.2-0.2,0.4-0.5,0.4-0.9c0-0.3-0.2-0.6-0.4-0.9l-0.5-0.4
			c-0.4-0.8-0.1-1.4,0.3-1.6c0.1-0.1,0.6-0.4,0.9,0.1c1.6,1.9,3.2,1.6,5,0.5c0.6-0.4,2.3-0.6,3.6,0c1,0.5,1.5,1.4,1.6,2.6
			c0.1,1.2-0.3,2.2-1.2,3c-1.4,1.2-3.6,1.6-4.9,1.3C16.4,26.8,14.8,28.1,13.9,29.1z"/>
		<g>
			<g>
				<circle class="st2" cx="76.9" cy="27.5" r="3.3"/>
				<circle class="st2" cx="76.9" cy="123.1" r="3.3"/>
				<circle class="st2" cx="124.7" cy="75.3" r="3.3"/>
				<circle class="st2" cx="29.1" cy="75.3" r="3.3"/>
			</g>
			<g>
				<path class="st2" d="M61.3,87.1c-4.2,0-7.5,3.4-7.5,7.5c0,4.2,3.4,7.5,7.5,7.5c4.2,0,7.5-3.4,7.5-7.5
					C68.8,90.5,65.4,87.1,61.3,87.1z M61.3,99.6c-2.8,0-5-2.2-5-5s2.2-5,5-5c2.8,0,5,2.2,5,5S64,99.6,61.3,99.6z"/>
				<path class="st2" d="M113.3,63.3c-0.1-0.9-1-1.5-1.9-1.4l-15.2,2.4c-0.4-0.4-1-0.6-1.6-0.5L51.9,70c-1.4,0.2-2.2,1.8-1.4,3
					l6.8,10.7c0.4,0.7,1.3,1,2.1,0.9c0.6-0.1,1.2-0.2,1.8-0.2c4,0,7.5,2.3,9.1,5.7c0.4,0.8,1.2,1.3,2.1,1.2l11.3-1.6l4.5,9
					c0.6,1.1,1.6,1.7,2.8,1.7c0.2,0,0.3,0,0.5,0c1.4-0.2,2.4-1.2,2.7-2.6l1.8-10.1c0.5-0.4,0.9-1,0.9-1.6V67.5l15-2.3
					C112.8,65,113.4,64.2,113.3,63.3z M91.1,97l-3.9-7.7l5.4-0.8L91.1,97z"/>
				<path class="st2" d="M93.3,60.1c0,0-2.2-5.7-7.5-4.9c-3.7,0.6-8.5-7.3-15.1-6.7c-6.6,0.6-8.5,11-11.8,11.2
					c-3.3,0.2-6.5,3.2-6.2,6.2L93.3,60.1z"/>
			</g>
			<path class="st2" d="M111.9,28.9l2.7-2.7l13,13l-1.2,1.2c-0.6,0.6-0.6,1.7,0,2.3c0.1,0.1,0.1,0.1,0.2,0.1l5.1,5.1
				c0,0.1,0.1,0.1,0.1,0.2c0.6,0.6,1.7,0.6,2.3,0l5.4-5.4c0.6-0.6,0.6-1.7,0-2.3l-5.4-5.4c-0.6-0.6-1.7-0.6-2.3,0l-1.3,1.3l-13-13
				l2.9-2.9c0.7-0.7,0.7-1.8,0-2.4l-4.3-4.3c-3.1-3.1-8.1-3.1-11.2,0c-3,3-3,8,0,11.1l4.2,4.2C110,29.6,111.2,29.6,111.9,28.9z
				 M130,41.4l3-3l3.1,3.1l-3,3L130,41.4z"/>
			<path class="st2" d="M40.9,119.9l-2.7,2.7l-13-13l1.2-1.2c0.6-0.6,0.6-1.7,0-2.3c-0.1-0.1-0.1-0.1-0.2-0.1l-5.1-5.1
				c0-0.1-0.1-0.1-0.1-0.2c-0.6-0.6-1.7-0.6-2.3,0l-5.4,5.4c-0.6,0.6-0.6,1.7,0,2.3l5.4,5.4c0.6,0.6,1.7,0.6,2.3,0l1.3-1.3l13,13
				l-2.9,2.9c-0.7,0.7-0.7,1.8,0,2.4l4.3,4.3c3.1,3.1,8.1,3.1,11.2,0c3-3,3-8,0-11.1l-4.2-4.2C42.9,119.2,41.6,119.2,40.9,119.9z
				 M22.9,107.4l-3,3l-3.1-3.1l3-3L22.9,107.4z"/>
			<path class="st2" d="M121.9,109.9l2.7,2.7l-13,13l-1.2-1.2c-0.6-0.6-1.7-0.6-2.3,0c-0.1,0.1-0.1,0.1-0.1,0.2l-5.1,5.1
				c-0.1,0-0.1,0.1-0.2,0.1c-0.6,0.6-0.6,1.7,0,2.3l5.4,5.4c0.6,0.6,1.7,0.6,2.3,0l5.4-5.4c0.6-0.6,0.6-1.7,0-2.3l-1.3-1.3l13-13
				l2.9,2.9c0.7,0.7,1.8,0.7,2.4,0l4.3-4.3c3.1-3.1,3.1-8.1,0-11.2c-3-3-8-3-11.1,0l-4.2,4.2C121.2,107.9,121.2,109.2,121.9,109.9z
				 M109.4,127.9l3,3l-3.1,3.1l-3-3L109.4,127.9z"/>
			<path class="st2" d="M30.9,38.9l-2.7-2.7l13-13l1.2,1.2c0.6,0.6,1.7,0.6,2.3,0c0.1-0.1,0.1-0.1,0.1-0.2l5.1-5.1
				c0.1,0,0.1-0.1,0.2-0.1c0.6-0.6,0.6-1.7,0-2.3l-5.4-5.4c-0.6-0.6-1.7-0.6-2.3,0l-5.4,5.4c-0.6,0.6-0.6,1.7,0,2.3l1.3,1.3l-13,13
				l-2.9-2.9c-0.7-0.7-1.8-0.7-2.4,0l-4.3,4.3c-3.1,3.1-3.1,8.1,0,11.2c3,3,8,3,11.1,0l4.2-4.2C31.6,40.9,31.6,39.6,30.9,38.9z
				 M43.4,20.9l-3-3l3.1-3.1l3,3L43.4,20.9z"/>
		</g>
		<g>
			<g>
				<circle class="st2" cx="225.9" cy="27.5" r="3.3"/>
				<circle class="st2" cx="225.9" cy="123.1" r="3.3"/>
				<circle class="st2" cx="273.7" cy="75.3" r="3.3"/>
				<circle class="st2" cx="178.1" cy="75.3" r="3.3"/>
			</g>
			<g>
				<path class="st2" d="M210.3,87.1c-4.2,0-7.5,3.4-7.5,7.5c0,4.2,3.4,7.5,7.5,7.5c4.2,0,7.5-3.4,7.5-7.5
					C217.8,90.5,214.4,87.1,210.3,87.1z M210.3,99.6c-2.8,0-5-2.2-5-5s2.2-5,5-5c2.8,0,5,2.2,5,5S213,99.6,210.3,99.6z"/>
				<path class="st2" d="M262.3,63.3c-0.1-0.9-1-1.5-1.9-1.4l-15.2,2.4c-0.4-0.4-1-0.6-1.6-0.5L200.9,70c-1.4,0.2-2.2,1.8-1.4,3
					l6.8,10.7c0.4,0.7,1.3,1,2.1,0.9c0.6-0.1,1.2-0.2,1.8-0.2c4,0,7.5,2.3,9.1,5.7c0.4,0.8,1.2,1.3,2.1,1.2l11.3-1.6l4.5,9
					c0.6,1.1,1.6,1.7,2.8,1.7c0.2,0,0.3,0,0.5,0c1.4-0.2,2.4-1.2,2.7-2.6l1.8-10.1c0.5-0.4,0.9-1,0.9-1.6V67.5l15-2.3
					C261.8,65,262.4,64.2,262.3,63.3z M240.1,97l-3.9-7.7l5.4-0.8L240.1,97z"/>
				<path class="st2" d="M242.3,60.1c0,0-2.2-5.7-7.5-4.9c-3.7,0.6-8.5-7.3-15.1-6.7c-6.6,0.6-8.5,11-11.8,11.2
					c-3.3,0.2-6.5,3.2-6.2,6.2L242.3,60.1z"/>
			</g>
			<path class="st2" d="M260.9,28.9l2.7-2.7l13,13l-1.2,1.2c-0.6,0.6-0.6,1.7,0,2.3c0.1,0.1,0.1,0.1,0.2,0.1l5.1,5.1
				c0,0.1,0.1,0.1,0.1,0.2c0.6,0.6,1.7,0.6,2.3,0l5.4-5.4c0.6-0.6,0.6-1.7,0-2.3l-5.4-5.4c-0.6-0.6-1.7-0.6-2.3,0l-1.3,1.3l-13-13
				l2.9-2.9c0.7-0.7,0.7-1.8,0-2.4l-4.3-4.3c-3.1-3.1-8.1-3.1-11.2,0c-3,3-3,8,0,11.1l4.2,4.2C259,29.6,260.2,29.6,260.9,28.9z
				 M279,41.4l3-3l3.1,3.1l-3,3L279,41.4z"/>
			<path class="st2" d="M189.9,119.9l-2.7,2.7l-13-13l1.2-1.2c0.6-0.6,0.6-1.7,0-2.3c-0.1-0.1-0.1-0.1-0.2-0.1l-5.1-5.1
				c0-0.1-0.1-0.1-0.1-0.2c-0.6-0.6-1.7-0.6-2.3,0l-5.4,5.4c-0.6,0.6-0.6,1.7,0,2.3l5.4,5.4c0.6,0.6,1.7,0.6,2.3,0l1.3-1.3l13,13
				l-2.9,2.9c-0.7,0.7-0.7,1.8,0,2.4l4.3,4.3c3.1,3.1,8.1,3.1,11.2,0c3-3,3-8,0-11.1l-4.2-4.2C191.9,119.2,190.6,119.2,189.9,119.9z
				 M171.9,107.4l-3,3l-3.1-3.1l3-3L171.9,107.4z"/>
			<path class="st2" d="M270.9,109.9l2.7,2.7l-13,13l-1.2-1.2c-0.6-0.6-1.7-0.6-2.3,0c-0.1,0.1-0.1,0.1-0.1,0.2l-5.1,5.1
				c-0.1,0-0.1,0.1-0.2,0.1c-0.6,0.6-0.6,1.7,0,2.3l5.4,5.4c0.6,0.6,1.7,0.6,2.3,0l5.4-5.4c0.6-0.6,0.6-1.7,0-2.3l-1.3-1.3l13-13
				l2.9,2.9c0.7,0.7,1.8,0.7,2.4,0l4.3-4.3c3.1-3.1,3.1-8.1,0-11.2c-3-3-8-3-11.1,0l-4.2,4.2C270.2,107.9,270.2,109.2,270.9,109.9z
				 M258.4,127.9l3,3l-3.1,3.1l-3-3L258.4,127.9z"/>
			<path class="st2" d="M179.9,38.9l-2.7-2.7l13-13l1.2,1.2c0.6,0.6,1.7,0.6,2.3,0c0.1-0.1,0.1-0.1,0.1-0.2l5.1-5.1
				c0.1,0,0.1-0.1,0.2-0.1c0.6-0.6,0.6-1.7,0-2.3l-5.4-5.4c-0.6-0.6-1.7-0.6-2.3,0l-5.4,5.4c-0.6,0.6-0.6,1.7,0,2.3l1.3,1.3l-13,13
				l-2.9-2.9c-0.7-0.7-1.8-0.7-2.4,0l-4.3,4.3c-3.1,3.1-3.1,8.1,0,11.2c3,3,8,3,11.1,0l4.2-4.2C180.6,40.9,180.6,39.6,179.9,38.9z
				 M192.4,20.9l-3-3l3.1-3.1l3,3L192.4,20.9z"/>
		</g>
		<g>
			<g>
				<circle class="st2" cx="76.9" cy="178.5" r="3.3"/>
				<circle class="st2" cx="76.9" cy="274.1" r="3.3"/>
				<circle class="st2" cx="124.7" cy="226.3" r="3.3"/>
				<circle class="st2" cx="29.1" cy="226.3" r="3.3"/>
			</g>
			<g>
				<path class="st2" d="M61.3,238.1c-4.2,0-7.5,3.4-7.5,7.5c0,4.2,3.4,7.5,7.5,7.5c4.2,0,7.5-3.4,7.5-7.5
					C68.8,241.5,65.4,238.1,61.3,238.1z M61.3,250.6c-2.8,0-5-2.2-5-5s2.2-5,5-5c2.8,0,5,2.2,5,5S64,250.6,61.3,250.6z"/>
				<path class="st2" d="M113.3,214.3c-0.1-0.9-1-1.5-1.9-1.4l-15.2,2.4c-0.4-0.4-1-0.6-1.6-0.5L51.9,221c-1.4,0.2-2.2,1.8-1.4,3
					l6.8,10.7c0.4,0.7,1.3,1,2.1,0.9c0.6-0.1,1.2-0.2,1.8-0.2c4,0,7.5,2.3,9.1,5.7c0.4,0.8,1.2,1.3,2.1,1.2l11.3-1.6l4.5,9
					c0.6,1.1,1.6,1.7,2.8,1.7c0.2,0,0.3,0,0.5,0c1.4-0.2,2.4-1.2,2.7-2.6l1.8-10.1c0.5-0.4,0.9-1,0.9-1.6v-18.7l15-2.3
					C112.8,216,113.4,215.2,113.3,214.3z M91.1,248l-3.9-7.7l5.4-0.8L91.1,248z"/>
				<path class="st2" d="M93.3,211.1c0,0-2.2-5.7-7.5-4.9c-3.7,0.6-8.5-7.3-15.1-6.7c-6.6,0.6-8.5,11-11.8,11.2
					c-3.3,0.2-6.5,3.2-6.2,6.2L93.3,211.1z"/>
			</g>
			<path class="st2" d="M111.9,179.9l2.7-2.7l13,13l-1.2,1.2c-0.6,0.6-0.6,1.7,0,2.3c0.1,0.1,0.1,0.1,0.2,0.1l5.1,5.1
				c0,0.1,0.1,0.1,0.1,0.2c0.6,0.6,1.7,0.6,2.3,0l5.4-5.4c0.6-0.6,0.6-1.7,0-2.3l-5.4-5.4c-0.6-0.6-1.7-0.6-2.3,0l-1.3,1.3l-13-13
				l2.9-2.9c0.7-0.7,0.7-1.8,0-2.4l-4.3-4.3c-3.1-3.1-8.1-3.1-11.2,0c-3,3-3,8,0,11.1l4.2,4.2C110,180.6,111.2,180.6,111.9,179.9z
				 M130,192.4l3-3l3.1,3.1l-3,3L130,192.4z"/>
			<path class="st2" d="M40.9,270.9l-2.7,2.7l-13-13l1.2-1.2c0.6-0.6,0.6-1.7,0-2.3c-0.1-0.1-0.1-0.1-0.2-0.1l-5.1-5.1
				c0-0.1-0.1-0.1-0.1-0.2c-0.6-0.6-1.7-0.6-2.3,0l-5.4,5.4c-0.6,0.6-0.6,1.7,0,2.3l5.4,5.4c0.6,0.6,1.7,0.6,2.3,0l1.3-1.3l13,13
				l-2.9,2.9c-0.7,0.7-0.7,1.8,0,2.4l4.3,4.3c3.1,3.1,8.1,3.1,11.2,0c3-3,3-8,0-11.1l-4.2-4.2C42.9,270.2,41.6,270.2,40.9,270.9z
				 M22.9,258.4l-3,3l-3.1-3.1l3-3L22.9,258.4z"/>
			<path class="st2" d="M121.9,260.9l2.7,2.7l-13,13l-1.2-1.2c-0.6-0.6-1.7-0.6-2.3,0c-0.1,0.1-0.1,0.1-0.1,0.2l-5.1,5.1
				c-0.1,0-0.1,0.1-0.2,0.1c-0.6,0.6-0.6,1.7,0,2.3l5.4,5.4c0.6,0.6,1.7,0.6,2.3,0l5.4-5.4c0.6-0.6,0.6-1.7,0-2.3l-1.3-1.3l13-13
				l2.9,2.9c0.7,0.7,1.8,0.7,2.4,0l4.3-4.3c3.1-3.1,3.1-8.1,0-11.2c-3-3-8-3-11.1,0l-4.2,4.2C121.2,258.9,121.2,260.2,121.9,260.9z
				 M109.4,278.9l3,3l-3.1,3.1l-3-3L109.4,278.9z"/>
			<path class="st2" d="M30.9,189.9l-2.7-2.7l13-13l1.2,1.2c0.6,0.6,1.7,0.6,2.3,0c0.1-0.1,0.1-0.1,0.1-0.2l5.1-5.1
				c0.1,0,0.1-0.1,0.2-0.1c0.6-0.6,0.6-1.7,0-2.3l-5.4-5.4c-0.6-0.6-1.7-0.6-2.3,0l-5.4,5.4c-0.6,0.6-0.6,1.7,0,2.3l1.3,1.3l-13,13
				l-2.9-2.9c-0.7-0.7-1.8-0.7-2.4,0l-4.3,4.3c-3.1,3.1-3.1,8.1,0,11.2c3,3,8,3,11.1,0l4.2-4.2C31.6,191.9,31.6,190.6,30.9,189.9z
				 M43.4,171.9l-3-3l3.1-3.1l3,3L43.4,171.9z"/>
		</g>
		<g>
			<g>
				<circle class="st2" cx="225.9" cy="178.5" r="3.3"/>
				<circle class="st2" cx="225.9" cy="274.1" r="3.3"/>
				<circle class="st2" cx="273.7" cy="226.3" r="3.3"/>
				<circle class="st2" cx="178.1" cy="226.3" r="3.3"/>
			</g>
			<g>
				<path class="st2" d="M210.3,238.1c-4.2,0-7.5,3.4-7.5,7.5c0,4.2,3.4,7.5,7.5,7.5c4.2,0,7.5-3.4,7.5-7.5
					C217.8,241.5,214.4,238.1,210.3,238.1z M210.3,250.6c-2.8,0-5-2.2-5-5s2.2-5,5-5c2.8,0,5,2.2,5,5S213,250.6,210.3,250.6z"/>
				<path class="st2" d="M262.3,214.3c-0.1-0.9-1-1.5-1.9-1.4l-15.2,2.4c-0.4-0.4-1-0.6-1.6-0.5l-42.7,6.2c-1.4,0.2-2.2,1.8-1.4,3
					l6.8,10.7c0.4,0.7,1.3,1,2.1,0.9c0.6-0.1,1.2-0.2,1.8-0.2c4,0,7.5,2.3,9.1,5.7c0.4,0.8,1.2,1.3,2.1,1.2l11.3-1.6l4.5,9
					c0.6,1.1,1.6,1.7,2.8,1.7c0.2,0,0.3,0,0.5,0c1.4-0.2,2.4-1.2,2.7-2.6l1.8-10.1c0.5-0.4,0.9-1,0.9-1.6v-18.7l15-2.3
					C261.8,216,262.4,215.2,262.3,214.3z M240.1,248l-3.9-7.7l5.4-0.8L240.1,248z"/>
				<path class="st2" d="M242.3,211.1c0,0-2.2-5.7-7.5-4.9c-3.7,0.6-8.5-7.3-15.1-6.7c-6.6,0.6-8.5,11-11.8,11.2
					c-3.3,0.2-6.5,3.2-6.2,6.2L242.3,211.1z"/>
			</g>
			<path class="st2" d="M260.9,179.9l2.7-2.7l13,13l-1.2,1.2c-0.6,0.6-0.6,1.7,0,2.3c0.1,0.1,0.1,0.1,0.2,0.1l5.1,5.1
				c0,0.1,0.1,0.1,0.1,0.2c0.6,0.6,1.7,0.6,2.3,0l5.4-5.4c0.6-0.6,0.6-1.7,0-2.3l-5.4-5.4c-0.6-0.6-1.7-0.6-2.3,0l-1.3,1.3l-13-13
				l2.9-2.9c0.7-0.7,0.7-1.8,0-2.4l-4.3-4.3c-3.1-3.1-8.1-3.1-11.2,0c-3,3-3,8,0,11.1l4.2,4.2C259,180.6,260.2,180.6,260.9,179.9z
				 M279,192.4l3-3l3.1,3.1l-3,3L279,192.4z"/>
			<path class="st2" d="M189.9,270.9l-2.7,2.7l-13-13l1.2-1.2c0.6-0.6,0.6-1.7,0-2.3c-0.1-0.1-0.1-0.1-0.2-0.1l-5.1-5.1
				c0-0.1-0.1-0.1-0.1-0.2c-0.6-0.6-1.7-0.6-2.3,0l-5.4,5.4c-0.6,0.6-0.6,1.7,0,2.3l5.4,5.4c0.6,0.6,1.7,0.6,2.3,0l1.3-1.3l13,13
				l-2.9,2.9c-0.7,0.7-0.7,1.8,0,2.4l4.3,4.3c3.1,3.1,8.1,3.1,11.2,0c3-3,3-8,0-11.1l-4.2-4.2C191.9,270.2,190.6,270.2,189.9,270.9z
				 M171.9,258.4l-3,3l-3.1-3.1l3-3L171.9,258.4z"/>
			<path class="st2" d="M270.9,260.9l2.7,2.7l-13,13l-1.2-1.2c-0.6-0.6-1.7-0.6-2.3,0c-0.1,0.1-0.1,0.1-0.1,0.2l-5.1,5.1
				c-0.1,0-0.1,0.1-0.2,0.1c-0.6,0.6-0.6,1.7,0,2.3l5.4,5.4c0.6,0.6,1.7,0.6,2.3,0l5.4-5.4c0.6-0.6,0.6-1.7,0-2.3l-1.3-1.3l13-13
				l2.9,2.9c0.7,0.7,1.8,0.7,2.4,0l4.3-4.3c3.1-3.1,3.1-8.1,0-11.2c-3-3-8-3-11.1,0l-4.2,4.2C270.2,258.9,270.2,260.2,270.9,260.9z
				 M258.4,278.9l3,3l-3.1,3.1l-3-3L258.4,278.9z"/>
			<path class="st2" d="M179.9,189.9l-2.7-2.7l13-13l1.2,1.2c0.6,0.6,1.7,0.6,2.3,0c0.1-0.1,0.1-0.1,0.1-0.2l5.1-5.1
				c0.1,0,0.1-0.1,0.2-0.1c0.6-0.6,0.6-1.7,0-2.3l-5.4-5.4c-0.6-0.6-1.7-0.6-2.3,0l-5.4,5.4c-0.6,0.6-0.6,1.7,0,2.3l1.3,1.3l-13,13
				l-2.9-2.9c-0.7-0.7-1.8-0.7-2.4,0l-4.3,4.3c-3.1,3.1-3.1,8.1,0,11.2c3,3,8,3,11.1,0l4.2-4.2C180.6,191.9,180.6,190.6,179.9,189.9
				z M192.4,171.9l-3-3l3.1-3.1l3,3L192.4,171.9z"/>
		</g>
	</g>
</g>
</svg>
